<?xml version="1.0" standalone="no"?>
<!DOCTYPE svg PUBLIC "-//W3C//DTD SVG 1.1//EN" "http://www.w3.org/Graphics/SVG/1.1/DTD/svg11.dtd">
<svg xmlns="http://www.w3.org/2000/svg">
<defs>
<font id="icofont" horiz-adv-x="1000" >
<font-face font-family="IcoFont" font-weight="400" font-style="Regular" units-per-em="1000" ascent="850" descent="-150" />
<missing-glyph horiz-adv-x="1000" />
<glyph glyph-name="arrow-down" horiz-adv-x="1000" unicode="&#xea5b;" d="M772 358l-53 54c-9 8-24 8-32 0l-137-137v352c0 13-10 23-23 23h-90c-13 0-23-10-23-23v-343l-127 128c-9 8-23 8-32 0l-54-54c-8-9-8-23 0-32l270-269c9-9 23-9 32 0l269 269c9 9 9 23 0 32z" />
<glyph glyph-name="arrow-left" horiz-adv-x="1000" unicode="&#xea5c;" d="M777 422h-343l128 128c8 9 8 23 0 32l-54 53c-9 9-23 9-32 0l-269-269c-9-9-9-23 0-32l269-269c9-9 23-9 32 0l54 53c8 9 8 23 0 32l-137 137h352c13 0 23 10 23 23v90c0 12-10 22-23 22z" />
<glyph glyph-name="arrow-right" horiz-adv-x="1000" unicode="&#xea5d;" d="M223 422h343l-128 128c-8 9-8 23 0 32l54 53c9 9 23 9 32 0l269-269c9-9 9-23 0-32l-269-269c-9-9-23-9-32 0l-54 53c-8 9-8 23 0 32l137 137h-352c-13 0-23 10-23 23v90c0 12 10 22 23 22z" />
<glyph glyph-name="arrow-up" horiz-adv-x="1000" unicode="&#xea5e;" d="M427 73v343l-127-128c-9-8-23-8-32 0l-54 54c-8 9-8 23 0 32l270 269c9 9 23 9 32 0l269-269c9-9 9-23 0-32l-53-54c-9-8-23-8-32 0l-137 137v-352c0-13-10-23-23-23h-90c-13 0-23 10-23 23z" />
<glyph glyph-name="thin-double-left" horiz-adv-x="1000" unicode="&#xeac6;" d="M533 634l-16 16-309-300 309-300 16 16-292 284 292 284z m258 0l-16 16-308-300 308-300 16 16-291 284 291 284z" />
<glyph glyph-name="thin-double-right" horiz-adv-x="1000" unicode="&#xeac7;" d="M467 634l16 16 308-300-308-300-16 16 292 284-292 284z m-259 0l16 16 309-300-309-300-16 16 292 284-292 284z" />
<glyph glyph-name="thin-down" horiz-adv-x="1000" unicode="&#xeac8;" d="M800 497l-300-309-300 309 17 16 283-292 284 291 16-15z" />
<glyph glyph-name="thin-left" horiz-adv-x="1000" unicode="&#xeac9;" d="M663 634l-292-284 291-284-16-16-308 300 308 300 17-16z" />
<glyph glyph-name="thin-right" horiz-adv-x="1000" unicode="&#xeaca;" d="M338 66l292 284-292 284 16 16 308-300-308-300-16 16z" />
<glyph glyph-name="thin-up" horiz-adv-x="1000" unicode="&#xeacb;" d="M784 188l-284 291-284-291-16 16 300 308 300-308-16-16z" />
<glyph glyph-name="curved-double-left" horiz-adv-x="1000" unicode="&#xea71;" d="M494 554c5 10 5 27 0 37l-27 52c-6 10-14 10-20 0l-144-275c-6-10-6-26 0-36l144-274c6-10 14-10 19 0l28 51c5 10 5 27 0 37l-98 186c-6 10-6 26 0 36l98 186z m105-222c-5 10-5 26 0 36l99 186c5 10 5 27 0 37l-28 52c-5 10-14 10-19 0l-145-275c-5-10-5-26 0-36l145-274c5-10 14-10 19 0l28 51c5 10 5 27 0 37l-99 186z" />
<glyph glyph-name="curved-double-right" horiz-adv-x="1000" unicode="&#xea72;" d="M506 554c-5 10-5 27 0 37l28 52c5 10 14 10 19 0l145-275c5-10 5-26 0-36l-145-274c-5-10-14-10-19 0l-28 51c-5 10-5 27 0 37l99 186c5 10 5 26 0 36l-99 186z m-105-222c5 10 5 26 0 36l-98 186c-6 10-6 27 0 37l27 52c5 10 14 10 19 0l145-275c5-10 5-26 0-36l-145-274c-5-10-14-10-19 0l-27 51c-6 10-6 27 0 37l98 186z" />
<glyph glyph-name="curved-down" horiz-adv-x="1000" unicode="&#xea73;" d="M793 418l-52 28c-10 5-27 5-37 0l-186-99c-10-5-26-5-36 0l-186 99c-10 5-27 5-37 0l-51-28c-10-5-10-14 0-19l274-145c10-5 26-5 36 0l275 145c10 5 10 14 0 19z" />
<glyph glyph-name="curved-left" horiz-adv-x="1000" unicode="&#xea74;" d="M549 642l-145-274c-5-10-5-26 0-36l145-274c5-10 14-10 19 0l28 51c5 11 5 27 0 37l-99 186c-5 10-5 26 0 36l99 186c5 10 5 27 0 37l-28 52c-5 10-14 10-19-1z" />
<glyph glyph-name="curved-right" horiz-adv-x="1000" unicode="&#xea75;" d="M432 642l-28-51c-5-10-5-27 0-37l99-186c5-10 5-26 0-36l-99-186c-5-10-5-27 0-37l28-51c5-11 14-11 19 0l145 274c5 10 5 26 0 36l-145 274c-5 11-14 11-19 0z" />
<glyph glyph-name="curved-up" horiz-adv-x="1000" unicode="&#xea76;" d="M784 301l-274 145c-10 5-27 5-37 0l-274-145c-10-5-10-14 0-19l52-28c10-5 26-5 36 0l186 99c10 5 26 5 37 0l186-99c10-5 26-5 36 0l52 28c10 5 10 14 0 19z" />
<glyph glyph-name="simple-down" horiz-adv-x="1000" unicode="&#xeab2;" d="M200 457l300-300 300 300-85 86-215-215-215 215-85-86z" />
<glyph glyph-name="simple-left" horiz-adv-x="1000" unicode="&#xeab5;" d="M607 650l-300-300 300-300 86 85-215 215 215 215z" />
<glyph glyph-name="simple-right" horiz-adv-x="1000" unicode="&#xeab8;" d="M393 50l300 300-300 300-85-85 214-215-215-215z" />
<glyph glyph-name="simple-up" horiz-adv-x="1000" unicode="&#xeab9;" d="M285 157l215 215 215-215 85 86-300 300-300-300 85-86z" />
<glyph glyph-name="simple-right-up" horiz-adv-x="1000" unicode="&#xeab7;" d="M630 650h-430v-170h430v-430h170v600h-170z" />
<glyph glyph-name="simple-right-down" horiz-adv-x="1000" unicode="&#xeab6;" d="M800 220v430h-170v-430h-430v-170h600v170z" />
<glyph glyph-name="simple-left-up" horiz-adv-x="1000" unicode="&#xeab4;" d="M200 650v-600h170v430h430v170h-600z" />
<glyph glyph-name="simple-left-down" horiz-adv-x="1000" unicode="&#xeab3;" d="M200 50h600v170h-430v430h-170v-600z" />
<glyph glyph-name="ui-search" horiz-adv-x="1000" unicode="&#xec82;" d="M982 61l-235 216c27 54 43 114 43 178 0 218-177 395-395 395-218 0-395-177-395-395 0-218 177-395 395-395 64 0 124 16 178 43l215-235c22-23 57-24 79-2l117 117c22 22 21 57-2 78z m-587 153c-133 0-241 108-241 241 0 133 108 241 241 241 133 0 241-108 241-241 0-133-108-241-241-241z" />
<glyph glyph-name="search-1" horiz-adv-x="1000" unicode="&#xed11;" d="M800 146c-7 8-8 20-2 29 44 68 69 148 69 235 0 239-194 434-433 434-239 0-434-195-434-434 0-239 195-434 434-434 93 0 179 30 250 80 8 6 21 6 28-2l155-155c1-1 2-2 3-3 2-1 9-8 17-15l18-19c7-7 19-7 26 0l64 64c7 7 7 19 0 26l-195 194z m-104 62c-14-19-30-36-48-51-58-49-133-79-214-79-183 0-332 149-332 332s149 332 332 332c183 0 331-149 331-332 0-76-26-146-69-202z" />
<glyph glyph-name="search-2" horiz-adv-x="1000" unicode="&#xed12;" d="M973 10l-230 230c-34-54-79-99-132-133l229-230c37-36 96-36 133 0 36 37 36 96 0 133z m-223 465c0 207-168 375-375 375-207 0-375-168-375-375 0-207 168-375 375-375 207 0 375 168 375 375z m-375-281c-155 0-281 126-281 281 0 155 126 281 281 281 155 0 281-126 281-281 0-155-126-281-281-281z m-219 281h63c0 86 70 156 156 156v63c-121 0-219-98-219-219z" />
<glyph glyph-name="search" horiz-adv-x="1000" unicode="&#xed1b;" d="M991-96l-259 254c68 74 110 171 110 278 0 229-189 414-421 414-233 0-421-185-421-414 0-229 188-414 421-414 100 0 192 35 265 92l259-255c13-12 33-12 46 0 12 13 12 33 0 45z m-570 182c-197 0-356 157-356 350 0 193 159 350 356 350 196 0 356-157 356-350 0-193-160-350-356-350z" />
<glyph glyph-name="close-circled" horiz-adv-x="1000" unicode="&#xeedd;" d="M703 501c6 6 6 16 0 22l-33 34c-6 6-16 6-22 0-46-47-91-93-137-140-6-6-16-6-22 0-46 47-91 93-137 140-6 6-16 6-22 0-11-12-22-23-33-35-6-6-6-16 0-22 45-45 90-92 137-139 6-6 6-16 0-22-46-47-92-93-137-140-6-6-6-16 0-22l33-34c7-6 16-6 22 0l137 139c6 6 16 6 22 0 46-46 91-92 137-139 6-6 16-6 22 0 11 12 22 23 33 34 6 6 6 16 0 22-45 46-90 93-136 140-6 6-6 16 0 22 45 47 91 93 136 140z m-203 287c-242 0-437-196-437-438s195-438 437-438 438 196 438 438-196 438-438 438z m0-807c-203 0-369 166-369 369s166 369 369 369 369-165 369-369-165-369-369-369z" />
<glyph glyph-name="ui-close" horiz-adv-x="1000" unicode="&#xec4f;" d="M981 104l-246 246 246 246c26 26 25 68 0 94l-141 141c-26 25-68 25-94 0l-246-247-246 247c-26 25-68 25-94 0l-141-141c-25-26-25-68 0-94l247-246-247-246c-25-26-25-68 0-94l141-141c26-25 68-25 94 0l246 247 246-247c26-25 68-25 94 0l141 141c26 26 26 68 0 94z" />
<glyph glyph-name="close-line-circled" horiz-adv-x="1000" unicode="&#xeede;" d="M682 558l-182-182-182 182-26-26 182-182-182-182 26-26 182 182 182-182 26 26-182 182 182 182-26 26z m127 101c-85 86-188 129-309 129s-224-43-309-129-128-188-128-309 42-224 128-309 188-129 309-129 224 43 309 129 129 188 129 309-43 224-129 309z m-25-593c-77-77-172-116-284-116s-207 39-284 116-116 172-116 284 39 207 116 284 172 116 284 116 207-39 284-116 116-172 116-284-39-207-116-284z" />
<glyph glyph-name="close-line-squared-alt" horiz-adv-x="1000" unicode="&#xeedf;" d="M63 720v-740c0-37 30-67 67-67h740c37 0 67 30 67 67v740c0 37-30 68-67 68h-740c-37 0-67-31-67-68z m780-780h-686c-37 0-67 30-67 67v686c0 37 30 67 67 67h686c37 0 67-30 67-67v-686c0-37-30-67-67-67z m-573 148l230 229 230-229 33 32-230 230 230 230-33 33-230-230-230 230-32-33 229-230-229-230 32-32z" />
<glyph glyph-name="close-line-squared" horiz-adv-x="1000" unicode="&#xeee0;" d="M63 788v-876h875v876h-875z m847-848h-820v820h820v-820z m-640 148l230 229 230-229 33 32-230 230 230 230-33 33-230-230-230 230-32-33 229-230-229-230 32-32z" />
<glyph glyph-name="close-line" horiz-adv-x="1000" unicode="&#xeee1;" d="M763 650l37-37-262-263 262-262-37-38-263 263-262-263-38 38 263 262-263 263 38 37 262-262z" />
<glyph glyph-name="close-squared-alt" horiz-adv-x="1000" unicode="&#xeee2;" d="M756 528c9 8 9 17 0 26l-51 52c-3 3-8 5-13 5-3 0-5-1-9-2-3-2-5-4-8-6l-152-151c-13-13-33-13-46 0l-155 154c-4 4-8 5-14 5-2 0-4 0-7-2-4-1-7-4-10-6l-47-49c-9-9-9-18 0-27l156-154c13-13 13-34 0-46l-156-155c-3-4-5-8-5-14 0-5 2-10 5-13l52-51c4-3 8-5 14-5 4 0 8 2 12 5l155 155c13 13 33 13 46 0l155-155c4-4 8-5 14-5 4 0 8 2 12 5l52 51c3 3 5 8 5 13 0 6-2 10-5 14l-157 156c-12 13-12 34 1 46l156 154z m150 228c-22 21-48 32-78 32h-656c-30 0-56-11-77-32s-32-48-32-78v-656c0-30 10-56 32-77s47-32 77-32h656c30 0 56 10 78 32 21 21 32 47 32 77v656c0 30-11 56-32 78z m-23-734c0-15-6-28-16-39-11-10-24-16-39-16h-656c-15 0-28 6-38 16-11 11-17 24-17 39v656c0 15 6 28 17 39 10 10 23 16 38 16h656c15 0 28-6 39-16 10-11 16-24 16-39v-656z" />
<glyph glyph-name="close-squared" horiz-adv-x="1000" unicode="&#xeee3;" d="M63 788v-876h875v876h-875z m49-826v776h776v-776h-776z m644 592l-50 52c-4 3-9 5-14 5-4 0-8-2-14-5l-178-177-178 177c-4 3-8 5-14 5-3 0-8-2-13-5l-51-52c-9-9-9-18 0-27l180-177-180-178c-3-4-5-8-5-14 0-5 2-10 5-13l52-51c4-3 8-5 14-5 4 0 8 2 12 5l178 179 178-179c4-3 8-5 14-5 4 0 8 2 12 5l52 51c3 3 5 8 5 13 0 6-2 10-5 14l-180 179 180 177c9 8 9 17 0 26z" />
<glyph glyph-name="close" horiz-adv-x="1000" unicode="&#xeee4;" d="M710 643c-65-65-129-131-194-197-9-9-23-9-31 0-65 66-130 132-195 197-8 9-22 9-31 0-15-16-31-32-47-48-8-9-8-23 0-32 63-64 128-130 194-197 9-9 8-23 0-32-65-66-130-132-195-198-8-9-8-23 0-31l48-48c9-9 23-9 31 0l195 197c8 9 22 9 31 0 64-66 129-131 194-197 8-9 22-9 31 0 16 16 31 32 47 48 9 9 9 23 0 32-63 65-128 130-194 197-8 9-8 23 0 32 65 66 130 132 195 198 8 9 8 23 0 32l-48 48c-9 8-23 8-31-1z" />
<glyph glyph-name="check-alt" horiz-adv-x="1000" unicode="&#xeed6;" d="M415 134c-8-8-17-11-27-11-9 0-18 3-26 11l-162 162 52 53 136-137 363 366 49-53-385-391z" />
<glyph glyph-name="check-circled" horiz-adv-x="1000" unicode="&#xeed7;" d="M687 551c-3 3-9 3-13-1-83-88-166-176-249-264-4-4-10-4-13 0l-89 88c-3 4-9 4-13 0l-53-53c-4-4-4-10 0-14l158-158c3-3 9-3 13 1 105 111 210 223 316 335 3 4 3 9-1 13-18 18-37 35-56 53z m-187 237c-242 0-437-196-437-438s195-438 437-438 438 196 438 438-196 438-438 438z m0-807c-203 0-369 166-369 369s166 369 369 369c204 0 369-165 369-369s-165-369-369-369z" />
<glyph glyph-name="check" horiz-adv-x="1000" unicode="&#xeed8;" d="M396 106l-193 192c-4 5-4 12 0 17l66 65c4 4 11 4 16 0l108-108c4-4 11-4 16 0 101 108 202 215 303 322 4 5 12 5 16 1l68-65c5-4 5-11 1-16-129-136-257-272-385-408-4-5-12-5-16 0z" />
<glyph glyph-name="checked" horiz-adv-x="1000" unicode="&#xeed9;" d="M705 73h-510c-7 0-12 6-12 12v510c0 7 5 13 12 13h392c7 0 17 4 22 9l102 102c5 5 3 9-4 9h-632c-7 0-12-6-12-13v-750c0-7 5-12 12-12h750c7 0 12 5 12 12v472c0 6-4 8-8 3l-103-102c-5-5-9-15-9-21v-232c0-6-5-12-12-12z m-400 365l-67-68c-5-5-5-12 0-17l186-186c5-5 13-5 18 0l492 492c5 5 5 13 0 17l-67 68c-5 5-13 5-18 0l-407-408c-5-5-13-5-18 0l-101 102c-5 4-13 4-18 0z" />
<glyph glyph-name="verification-check" horiz-adv-x="1000" unicode="&#xf021;" d="M793 687c-133-126-265-252-397-378-9-8-23-8-31 1l-140 147c-8 9-22 10-31 2-42-36-82-72-124-109-9-8-10-21-2-30 93-102 185-204 278-306 8-8 22-9 31-1 185 173 369 344 553 515 9 9 10 23 2 32-37 42-73 84-109 126-8 9-21 10-30 1z" />
<glyph glyph-name="ui-check" horiz-adv-x="1000" unicode="&#xec4b;" d="M986 675l-154 124c-16 13-40 10-53-6l-419-519-164 149c-15 14-39 13-53-2l-133-146c-14-16-13-40 2-54l351-319c16-14 39-12 52 4l124 154c0 1 0 1 0 1l453 561c13 16 10 40-6 53z" />
<glyph glyph-name="ui-add" horiz-adv-x="1000" unicode="&#xec3e;" d="M943 493h-300v300c0 31-26 57-57 57h-172c-31 0-57-26-57-57v-300h-300c-31 0-57-26-57-57v-172c0-31 26-57 57-57h300v-300c0-31 26-57 57-57h172c31 0 57 26 57 57v300h300c31 0 57 26 57 57v172c0 31-26 57-57 57z" />
<glyph glyph-name="ui-block" horiz-adv-x="1000" unicode="&#xec41;" d="M854 704c-196 195-512 195-708 0-195-196-195-512 0-708 196-195 512-195 708 0 195 196 195 512 0 708z m-591-117c111 111 280 128 408 51l-459-459c-76 128-60 297 51 408z m474-474c-111-111-280-128-408-51l459 459c77-128 60-297-51-408z" />
<glyph glyph-name="ui-calendar" horiz-adv-x="1000" unicode="&#xec45;" d="M930 676c0 50-28 75-78 74-17-1-20-7-20-22 1-25 1-51 0-76-2-41-26-66-67-69-21-2-43-2-64 0-43 3-68 29-69 73 0 24-1 48 0 72 1 16-4 22-20 22-75-1-150-1-225 0-17 0-20-8-19-22 0-25 0-51 0-76-1-38-23-64-61-68-23-3-47-3-70-1-43 2-66 27-68 70-1 25-1 51 0 76 1 16-5 20-21 21-51 1-78-25-78-77 0-248 0-497 0-746 0-53 23-77 77-77 235 0 471 0 706 0 54 0 77 23 77 77 0 124 0 249 0 373 0 126 0 251 0 376z m-762-177c0 13 6 18 19 18 55 0 110 0 164 0 12 0 17-5 17-16-1-45-1-90 0-135 0-14-8-16-20-16-27 0-54 0-81 0-27 0-54 0-81 0-13 0-18 5-18 18 0 44 0 87 0 131z m200-531c0-14-5-20-19-20-53 1-106 1-159 0-16 0-22 6-22 21 1 43 0 86 0 129 0 13 5 18 18 18 27-1 54 0 81 0 27 0 54-1 81 0 15 0 20-4 20-19-1-43-1-86 0-129z m-23 181c-26 1-52 0-78 0-25 0-51 1-76 0-16-1-24 4-23 21 1 42 1 85 0 127 0 16 6 20 22 20 52-1 104-1 157 0 18 1 21-7 21-23-1-41-1-82 0-123 1-18-6-23-23-22z m75 368c53 0 106 0 159 0 15 1 20-5 20-19 0-43-1-86 0-129 0-16-6-19-20-19-27 1-54 0-81 0-27 0-53 1-79 0-13 0-18 5-18 18 1 44 1 88 0 132 0 14 6 17 19 17z m-19-220c0 15 4 20 19 20 53-1 107-1 160 0 15 0 19-5 19-20 0-43 0-86 0-129 0-14-5-20-19-19-27 1-54 0-81 0-26 0-51 1-76 0-15-1-22 2-22 20 1 42 1 85 0 128z m198-326c1-17-6-23-22-23-52 1-103 1-155 0-15 0-22 5-21 21 1 42 1 84 0 126 0 16 5 22 21 21 26-1 52 0 78 0 26 0 51-1 76 0 16 1 24-4 23-22-1-41-1-82 0-123z m33 527c0 14 5 20 19 19 54 0 107 0 160 0 15 1 22-4 22-20-1-43-1-86 0-129 0-13-5-18-19-18-28 0-56 0-84 0-25 0-50 1-75 0-16-1-24 4-23 22 1 42 1 84 0 126z m200-532c1-13-6-18-18-18-55 1-110 1-165 0-12 0-17 6-17 17 0 45 0 90 0 135 0 15 9 16 20 16 27 0 54 0 81 0 27 0 54-1 81 0 13 0 19-5 18-18 0-44 0-88 0-132z m-23 183c-26 1-52 0-78 0-27 0-54 1-81 0-13 0-18 5-18 18 0 44 1 88 0 131 0 16 6 19 20 19 53 0 106 0 159 0 16 0 22-5 22-21-1-42-1-84 0-125 0-19-8-23-24-22z m-537 468c34 2 60 29 62 64 1 18 0 36 0 53 0 17 1 34 0 51-2 35-27 62-61 65-34 2-64-21-69-56-5-40-5-81 0-120 4-36 35-59 68-57z m458 0c37-2 66 27 69 67 1 16 0 31 0 47h0c0 18 1 36-1 54-2 38-31 65-67 65-35-1-64-29-65-67-1-33-1-66 0-98 1-39 28-67 64-68z" />
<glyph glyph-name="ui-call" horiz-adv-x="1000" unicode="&#xec46;" d="M664-149c-39-1-90 32-125 62-91 78-153 179-210 283-67 118-128 240-163 372-14 56-23 113-8 170 12 44 37 74 84 83 45 7 89 19 133 27 29 6 46-3 57-30 29-70 57-139 84-209 11-28 5-46-19-62-22-15-45-28-66-45-8-6-15-20-13-28 23-92 66-173 128-245 9-11 19-14 33-7 23 11 47 20 71 30 29 11 48 6 65-19 41-61 82-122 122-183 19-29 17-48-9-73-32-31-38-42-164-126z" />
<glyph glyph-name="ui-cart" horiz-adv-x="1000" unicode="&#xec48;" d="M417 176c-37 0-67-30-67-67 0-37 30-67 67-67 37 0 67 30 67 67 0 37-30 67-67 67z m350 0c-37 0-67-30-67-67 0-37 30-67 67-67s67 30 67 67c0 37-30 67-67 67z m217 403h-732l-50 79h-166c-20 0-36-16-36-36v-13c0-20 16-36 36-36h108c-2-4-2-9 2-15l188-314c7-12 24-22 38-22h445c13 0 29 10 35 23l146 312c6 12-1 22-14 22z m-248-86c0 14 11 25 25 25h10c13 0 25-11 25-25v-5c0-14-12-25-25-25h-10c-14 0-25 11-25 25v5z m-91 0c0 14 12 25 25 25h10c14 0 25-11 25-25v-5c0-14-11-25-25-25h-10c-13 0-25 11-25 25v5z m-91 0c0 14 12 25 25 25h10c14 0 25-11 25-25v-5c0-14-11-25-25-25h-10c-13 0-25 11-25 25v5z m-90 0c0 14 11 25 25 25h9c14 0 25-11 25-25v-5c0-14-11-25-25-25h-9c-14 0-25 11-25 25v5z m-91 0c0 14 11 25 25 25h9c14 0 25-11 25-25v-5c0-14-11-25-25-25h-9c-14 0-25 11-25 25v5z m-66-30c-14 0-25 11-25 25v5c0 14 11 25 25 25h9c14 0 25-11 25-25v-5c0-14-11-25-25-25h-9z m55-88h-9c-14 0-25 11-25 25v5c0 14 11 25 25 25h9c14 0 25-11 25-25v-5c0-14-11-25-25-25z m70-67c0-14-11-25-25-25h-9c-14 0-25 11-25 25v5c0 14 11 25 25 25h9c14 0 25-11 25-25v-5z m12 67c-14 0-25 11-25 25v5c0 14 11 25 25 25h9c14 0 25-11 25-25v-5c0-14-11-25-25-25h-9z m79-67c0-14-11-25-25-25h-9c-14 0-25 11-25 25v5c0 14 11 25 25 25h9c14 0 25-11 25-25v-5z m12 67c-14 0-25 11-25 25v5c0 14 11 25 25 25h9c14 0 25-11 25-25v-5c0-14-11-25-25-25h-9z m79-67c0-14-11-25-25-25h-10c-13 0-25 11-25 25v5c0 14 12 25 25 25h10c14 0 25-11 25-25v-5z m12 67c-14 0-25 11-25 25v5c0 14 11 25 25 25h9c14 0 25-11 25-25v-5c0-14-11-25-25-25h-9z m79-67c0-14-11-25-25-25h-10c-13 0-25 11-25 25v5c0 14 12 25 25 25h10c14 0 25-11 25-25v-5z m11 67c-13 0-25 11-25 25v5c0 14 12 25 25 25h10c14 0 25-11 25-25v-5c0-14-11-25-25-25h-10z m80-67c0-14-12-25-25-25h-10c-14 0-25 11-25 25v5c0 14 11 25 25 25h10c13 0 25-11 25-25v-5z m46 92c0-14-12-25-25-25h-10c-14 0-25 11-25 25v5c0 14 11 25 25 25h10c13 0 25-11 25-25v-5z m44 88c0-14-11-25-24-25h-10c-14 0-25 11-25 25v5c0 14 11 25 25 25h10c13 0 24-11 24-25v-5z" />
<glyph glyph-name="ui-delete" horiz-adv-x="1000" unicode="&#xec53;" d="M800 573c-98 0-195 0-292 0-103 0-206 1-309 0-52-1-64-14-57-65 27-198 55-396 84-594 7-53 20-64 74-64 138 0 276 0 415 0 59 0 72 15 79 73 23 190 47 381 71 570 9 66 0 79-65 80z m-454-618c-33-5-46 22-49 51-17 137-32 274-48 411-3 27 5 50 33 55 32 5 47-17 50-45 11-81 20-162 30-243 7-56 13-112 19-168 3-29-1-57-35-61z m201 51c0-28-12-53-42-52-33 0-42 26-42 56 1 68 0 136 0 203h-1c0 68 1 135 0 203 0 29 5 57 39 59 35 1 45-26 45-55 1-138 1-276 1-414z m217 407c-17-137-34-274-52-410-3-28-18-52-48-47-33 4-39 31-34 61 9 67 16 134 25 201s17 134 25 201c4 29 12 56 47 54 34-3 40-31 37-60z m-339 351c16 83 25 92 81 83 96-15 99-18 86-111 74-13 148-27 223-39 32-5 61-13 56-53-6-42-41-37-70-32-172 29-344 59-516 89-37 6-75 14-112 19-30 5-48 20-43 51 6 32 30 39 58 34 79-14 158-28 237-41z" />
<glyph glyph-name="ui-clip-board" horiz-adv-x="1000" unicode="&#xec4c;" d="M881 724c-9 5-18 8-27 8-38 1-77 1-115 1-1 0-2-1-4-1v-60c0-29 0-57 0-86 0-19-10-29-29-29-80 0-160 0-240 0-56 0-111 0-167 0-24 0-34 9-34 33 0 45 0 89 0 134 0 3 0 5 0 9h-55c-20 0-40 0-60 0-34-1-61-27-61-61 0-256 0-511 0-766 0-30 24-54 54-55 4-1 8-1 12-1 229 0 458 1 687 0 34 0 58 12 69 45v787c-6 17-13 34-30 42z m-157-380c-70-70-140-141-211-212-14-14-29-29-43-44-15-15-29-14-44 0-49 47-98 94-147 140-17 17-18 31-2 48 10 9 19 19 29 28 15 16 28 16 44 1l93-86c1-1 3-2 4-3 32 32 64 63 95 94 36 35 71 71 107 107 16 17 30 17 46 0 10-10 19-19 28-29 15-14 15-29 1-44z m-378 272c9-2 19-1 28-1 89-1 179-1 268 0 3 0 7 0 10 0 16 3 24 13 25 28 0 30 0 60 0 90-1 29-15 50-38 56-9 2-18 2-27 2-17 1-35 1-52 1-1 5-1 8-2 12-1 23-9 41-34 46h-48c-32-7-34-33-35-58h-56c-36 0-60-23-61-59-1-30-1-61 0-91 0-14 8-24 22-26z" />
<glyph glyph-name="ui-copy" horiz-adv-x="1000" unicode="&#xec51;" d="M750 434c0-93 0-186 0-279 0-67-42-120-107-135-9-1-18-3-27-3-132 0-265 0-397 0-66 0-119 43-132 107-2 10-3 20-3 30 0 151 0 302 0 453-1 24 8 45 21 64 36 52 83 93 134 129 29 20 58 38 92 47 8 2 16 3 24 3 87 0 174 0 261 0 75 0 133-60 134-134 0-94 0-188 0-282z m-601 184c0-4 0-6 0-9 0-154 0-308 0-463 0-34 31-64 65-64 135 0 269 0 404 0 4 0 9 0 13 2 33 7 53 34 53 68v566c0 37-29 67-66 67-86 0-172 0-258 0-3 0-7-1-11-1 0-5 0-10 0-14-1-25 0-50-2-75-3-37-25-64-60-72-13-3-26-5-40-5-32 0-64 0-98 0z m102-636c20 0 39 0 59 0 2 0 5-4 6-6 3-35 35-62 73-61 131 1 262 0 393 0 34 0 60 21 68 53 1 5 1 9 1 14 0 190 0 380 0 570 0 33-24 61-57 65-8 1-10 4-9 11 0 18 0 36 0 54 25 0 47-6 67-18 42-26 64-65 64-114 1-189 1-378 0-567 0-79-61-128-117-131-46-2-92-2-139-2-91 0-183 0-275 0-49 1-87 22-114 64-13 20-19 42-20 68z m165 519c-59 0-118 0-177 0-14 0-20 5-22 25 0 16 7 24 22 24 118 0 235-1 352 0 10 0 18-1 22-11 4-11 5-23-3-32-4-4-11-6-16-6-60 0-119 0-178 0z m0-100h-177c-15 0-22 7-21 24 0 17 6 25 21 25 118-1 236-1 354-1 15 0 23-7 23-23 0-17-7-25-24-25-58 0-117 0-176 0z m0-52h177c16 0 24-7 23-24-1-17-6-24-24-24-118 0-236 0-354 0-13 0-17 4-20 19-4 18 5 29 24 29 58 0 116 0 174 0z m-1-148c-58 0-116 0-174-1-18 0-23 7-23 27 0 17 6 22 24 22h352c14 0 22-8 22-24 0-15-7-24-22-24-59 0-119 0-179 0z" />
<glyph glyph-name="ui-clock" horiz-adv-x="1000" unicode="&#xec4e;" d="M500 850c-276 0-500-224-500-500 0-276 224-500 500-500 276 0 500 224 500 500 0 276-224 500-500 500z m-3-830c-182 0-330 148-330 330s148 330 330 330c183 0 331-148 331-330s-148-330-331-330z m75 376v174c0 32-26 59-58 59h-28c-32 0-58-27-58-59v-210c0-22 12-41 30-51 1-2 2-5 5-7l149-149c22-23 59-23 82 0l19 19c23 23 23 60 0 82l-141 142z" />
<glyph glyph-name="ui-folder" horiz-adv-x="1000" unicode="&#xec5b;" d="M857 7h-754c8 22 16 43 24 64 39 104 78 207 116 311 14 36 56 62 90 62 204-1 408-1 613 0 23 0 41-6 51-28 3-7 5-13 0-25-46-126-94-257-140-384z m-543 686c1-3 1-6 3-9 18-36 36-72 53-108 3-6 7-8 14-8 142 0 285 0 428 0 29 0 55-21 60-51 1-3 0-7 0-11h-12c-174 0-348 0-522 0-60 0-108-26-140-78-11-17-17-38-24-58-37-97-73-194-110-292-3-7-6-9-14-7-24 6-48 25-50 47v526c0 46 34 49 49 49h265z" />
<glyph glyph-name="ui-edit" horiz-adv-x="1000" unicode="&#xec55;" d="M0-110c28 95 56 190 83 286 3 7 5 15 7 23 3 11 9 20 18 28 9 7 16 16 24 24 131 129 261 258 391 387 3 3 6 6 8 9 18-18 34-34 53-53-2-1-6-3-9-6-135-135-270-270-405-405-5-5-9-11-11-18-16-54-31-107-47-161-2-7-1-11 4-16 8-7 16-16 24-23 3-3 8-5 12-4 54 16 107 31 161 48 5 1 9 5 12 9 137 136 274 273 411 410 2 2 5 5 6 7 19-20 38-38 59-59-1-1-5-2-7-5-135-133-270-266-404-401-19-18-39-30-64-37-89-25-178-52-267-78-5-2-11-3-17-5h-8c-5 2-9 4-13 6-12 5-16 17-21 28v6z m269 165c-3 17-5 32-7 47-1 8-4 10-11 12-17 3-34 7-50 11 142 142 284 284 425 425 22-22 46-45 68-68-140-141-282-283-425-427z m408 731c13 12 26 26 40 38 39 36 90 35 128-3 43-41 84-83 126-125 39-40 38-93-1-133-12-12-24-24-35-35-85 86-171 171-258 258z m-104-94c19 18 39 36 58 54 90-89 179-179 269-268-19-18-39-37-58-55l-269 269z" />
<glyph glyph-name="ui-laoding" horiz-adv-x="1000" unicode="&#xec60;" d="M500 850c-50 0-91-41-91-91s41-91 91-91c50 0 91 41 91 91s-41 91-91 91z m0-818c-50 0-91-41-91-91 0-50 41-91 91-91 50 0 91 41 91 91 0 50-41 91-91 91z m409 409c-50 0-91-41-91-91 0-50 41-91 91-91s91 41 91 91c0 50-41 91-91 91z m-727-91c0 50-40 91-91 91s-91-41-91-91c0-50 41-91 91-91s91 41 91 91z m672 225c35 35 35 93 0 129-36 35-94 35-129 0-36-36-36-94 0-129 35-36 93-36 129 0z m-708-450c-35-35-35-93 0-129 36-35 94-35 129 0 36 36 36 94 0 129-35 36-93 36-129 0z m579 0c-36-35-36-93 0-129 35-35 93-35 129 0 35 36 35 94 0 129-36 36-94 36-129 0z m-450 450c36 35 36 93 0 129s-93 35-129 0c-35-36-35-94 0-129 36-36 94-36 129 0z" />
<glyph glyph-name="ui-image" horiz-adv-x="1000" unicode="&#xec5f;" d="M1 351c0 133 2 267-1 401-1 68 26 98 94 98 271-1 542-1 813 0 70 0 94-32 93-99-1-268-1-535 0-803 1-68-25-98-94-98-271 1-542 2-813 0-71 0-94 33-93 99 2 134 1 268 1 402z m858 349h-717c0-175-2-344 2-513 1-18 33-50 51-50 202-4 404-4 606 0 19 1 55 35 55 54 5 166 3 332 3 509z m-462-210c27-69 47-120 72-186l183 332c42-153 76-282 114-421h-546c58 91 112 173 177 275z" />
<glyph glyph-name="ui-home" horiz-adv-x="1000" unicode="&#xec5e;" d="M500-69c-75 0-150 1-225 0-105-1-164 82-161 161 4 72 2 145 1 217 0 16 3 26 19 34 117 61 233 124 349 186 13 7 23 7 35 0 116-63 232-125 349-186 14-8 19-16 18-32 0-75 0-150 0-225 0-89-64-154-153-155-78 0-155 0-232 0z m436 479c-13 5-27 9-39 16-125 65-249 131-372 199-19 10-33 9-50-1-126-68-251-134-377-201-43-23-86-5-96 40-7 27 7 54 38 70 116 62 231 124 347 185 30 16 60 34 92 47 13 5 33 5 45-1 148-77 295-156 441-234 29-15 41-43 33-71-9-29-31-46-62-49z" />
<glyph glyph-name="ui-mute" horiz-adv-x="1000" unicode="&#xec6c;" d="M531 390l2-2c-1 0-2 0-2 2z m-85-43c0-94 1-188-1-281 0-13-5-32-15-38-8-5-28 0-38 8-74 54-149 108-220 166-13 11-18 40-18 61 0 69 2 138 5 208 1 11 10 25 19 33 69 54 139 107 211 159 11 8 31 14 41 9 10-5 17-26 17-40 1-95-1-190-1-285 0 0-2 2 0 0z m-356 2c0-35-1-70 0-105 1-17-4-24-22-26-63-7-67-4-68 59 0 57 1 114 0 170 0 25 8 35 34 35 56 0 56 1 56-53 0-27 0-53 0-80z m764-19l126 127c24 24 27 61 5 82-21 21-58 19-82-5l-126-127-127 127c-24 24-61 26-83 5-21-21-19-58 5-82l127-127-126-126c-25-25-27-62-6-83 22-21 59-19 83 5l127 127 126-127c24-24 61-26 82-5 22 21 19 59-5 83l-126 126z" />
<glyph glyph-name="ui-play" horiz-adv-x="1000" unicode="&#xec74;" d="M119 360c0 118-8 238 2 356 11 130 97 171 207 97 167-113 330-235 491-358 86-65 86-143-2-209-166-125-332-249-504-367-92-63-179-21-189 95-11 127-2 257-2 386h-3z" />
<glyph glyph-name="ui-play-stop" horiz-adv-x="1000" unicode="&#xec73;" d="M885 850h-770c-63 0-115-52-115-115v-770c0-63 52-115 115-115h770c63 0 115 52 115 115v770c0 63-52 115-115 115z m-169-645c0-39-32-71-71-71h-290c-39 0-71 32-71 71v290c0 39 32 71 71 71h290c39 0 71-32 71-71v-290z" />
<glyph glyph-name="ui-pause" horiz-adv-x="1000" unicode="&#xec72;" d="M315 839c-117 39-221-33-221-155-1-111-1-223 0-334h0c0-118-1-236 0-354 0-65 40-115 101-135 117-39 220 33 221 155 0 111 0 223 0 334h-1c1 118 1 236 1 354 0 65-40 115-101 135z m591-135c0 65-40 115-101 135-117 39-221-33-221-155 0-111 0-223 0-334h0c0-118 0-236 0-354 0-65 40-115 101-135 117-39 221 33 221 155 0 111 0 223 0 334h0c0 118 0 236 0 354z" />
<glyph glyph-name="ui-next" horiz-adv-x="1000" unicode="&#xec6e;" d="M954 426c-118 90-237 179-359 262-80 54-142 24-151-71-3-45-4-91-3-136-94 71-189 141-287 207-79 54-142 24-150-71-8-86-2-173-2-260l2 0c0-94-6-188 2-281 7-85 70-115 138-69 101 69 200 142 299 216-1-49-1-98 4-147 7-85 70-115 138-69 125 85 246 176 367 267 64 48 64 105 2 152z" />
<glyph glyph-name="ui-previous" horiz-adv-x="1000" unicode="&#xec78;" d="M998 343l-2 0c0 94 6 188-2 281-7 85-70 115-138 69-101-69-200-142-299-216 1 49 1 99-4 147-7 85-70 115-137 69-125-85-247-176-368-267-64-48-64-105-1-152 117-90 236-179 358-262 80-54 143-24 151 71 3 45 4 91 3 136 94-71 189-141 287-207 79-54 142-24 150 71 8 86 2 173 2 260z" />
<glyph glyph-name="ui-press" horiz-adv-x="1000" unicode="&#xec77;" d="M1000 350v0c0 31-3 62-8 91-32 175-155 318-318 378l-2 1-1 0c-53 19-111 30-171 30h0c-213 0-396-134-467-322-21-56-33-115-33-178v0c0-51 8-100 22-146 24-81 69-153 127-211 81-78 187-130 306-141 15-1 30-2 45-2h0c156 0 296 72 388 184 70 86 112 196 112 316v0z" />
<glyph glyph-name="ui-power" horiz-adv-x="1000" unicode="&#xec76;" d="M685 670v-173c61-52 100-129 100-216 0-157-127-285-285-285s-284 128-284 285c0 87 39 164 100 216v173c-146-69-246-217-246-389 0-238 192-431 430-431s431 193 431 431c0 172-101 320-246 389z m-190-310h10c45 0 81 37 81 81v328c0 45-36 81-81 81h-10c-44 0-80-36-80-81v-328c0-44 36-81 80-81z" />
<glyph glyph-name="ui-rate-add" horiz-adv-x="1000" unicode="&#xec79;" d="M716 66h-14c-38 0-69 31-69 69v128h-118c-38 0-69 31-69 69v132c0 38 31 69 69 69h63l-105 241c-8 17-20 17-28 0l-109-250c-7-17-29-33-48-35l-271-26c-19-2-23-14-8-26l204-181c14-12 22-38 18-56l-59-267c-4-18 6-25 22-16l235 138c17 10 43 10 60 0l235-138c16-9 26-2 22 16l-30 133z m250 399h-133v130c0 19-16 35-35 35h-65c-19 0-34-16-34-35v-130h-130c-19 0-34-16-34-35v-65c0-19 15-34 34-34h130l0-132c0-19 15-35 34-35h65c19 0 35 16 35 35l0 132h133c19 0 34 15 34 34v65c0 19-15 35-34 35z" />
<glyph glyph-name="ui-rate-blank" horiz-adv-x="1000" unicode="&#xec7a;" d="M767-129c-15 0-29 5-43 13l-220 129c1 0-1 0-4 0s-4 0-5 0l-219-129c-34-21-74-15-96 12-8 11-21 33-13 67l55 249c0 2-2 7-3 9l-190 168c-25 22-35 52-26 79 9 28 34 46 68 49l253 25c2 0 6 4 7 6l102 232c13 31 38 49 67 49s54-18 68-49l101-233c1-1 6-5 8-5l253-25c33-3 58-21 67-49 9-27-1-57-26-79l-191-169c0-1-2-6-2-9l55-248c8-34-5-56-13-67-13-16-32-25-53-25z m-593 542l121-108c31-27 47-77 39-117l-35-159 139 83c23 13 46 15 62 15s39-2 62-15l140-83-35 159c-9 40 7 90 38 117l121 108-161 15c-42 4-84 35-100 73l-65 149-65-149c-16-38-58-69-100-73l-161-15z" />
<glyph glyph-name="ui-rate-remove" horiz-adv-x="1000" unicode="&#xec7b;" d="M677 204c-4 17 4 40 17 52l16 14h-187c-35 0-64 29-64 64v121c0 35 29 63 64 63h53c-1 1-1 1-1 2l-109 250c-7 16-19 16-26 0l-109-250c-7-17-26-31-44-33l-271-26c-18-2-21-12-8-24l204-181c13-12 21-35 17-52l-59-266c-4-17 6-24 21-15l235 138c15 9 39 9 54 0l236-138c15-9 24-2 20 15l-59 266z m291 261h-427c-17 0-32-14-32-32v-78c0-17 15-31 32-31h427c18 0 32 14 32 31v78c0 18-14 32-32 32z" />
<glyph glyph-name="ui-rating" horiz-adv-x="1000" unicode="&#xec7c;" d="M485 812c8 19 22 19 30 0l119-272c8-19 31-36 52-38l295-29c21-2 25-15 10-29l-222-196c-16-14-25-42-20-62l64-290c4-20-7-28-25-18l-256 151c-17 10-47 10-64 0l-256-151c-18-10-29-2-24 18l64 290c4 20-5 48-20 62l-223 196c-15 14-11 27 10 29l295 29c21 2 44 19 53 38l118 272z" />
<glyph glyph-name="ui-rss" horiz-adv-x="1000" unicode="&#xec81;" d="M891 850h-782c-60 0-109-49-109-109v-782c0-60 49-109 109-109h782c60 0 109 49 109 109v782c0 60-49 109-109 109z m-669-880c-58 0-105 47-105 106 0 58 47 105 105 105 59 0 106-47 106-105 0-59-47-106-106-106z m266 0c-1 204-166 368-370 368 0 0-1 0-1 0v104c0 0 1 0 1 0 261 0 473-211 474-472h-104z m270 0c-33 338-303 606-641 637v119l2 0c418 0 757-338 758-756h-119z" />
<glyph glyph-name="ui-rotation" horiz-adv-x="1000" unicode="&#xec80;" d="M172 356c0 48 12 97 33 141l2 0c15 30 35 59 61 84 110 111 279 126 406 47l-107-107 416-87-45 222-42 194-99-99c-195 145-472 130-649-47-87-88-135-199-144-313l168-35z m657-13c-1-48-12-96-34-140l-1 0c-15-30-36-59-61-84-110-111-279-126-406-47l105 106-415 88 29-144 59-272 99 99c195-145 472-130 649 47 87 87 134 198 143 312l-167 35z" />
<glyph glyph-name="ui-reply" horiz-adv-x="1000" unicode="&#xec7f;" d="M740 116c-129-129-338-129-467 0-128 129-128 338 0 467 111 111 282 126 409 46l-108-109 420-90-90 420-100-99c-195 145-473 130-651-48-195-195-195-511 0-707 196-195 512-195 707 0 49 49 85 105 110 165l-168 41c-16-31-36-60-62-86z" />
<glyph glyph-name="ui-remove" horiz-adv-x="1000" unicode="&#xec7e;" d="M0 451c0 24 20 44 44 44h912c24 0 44-20 44-44v-201c0-25-20-45-44-45h-912c-24 0-44 20-44 45v201z" />
<glyph glyph-name="ui-settings" horiz-adv-x="1000" unicode="&#xec83;" d="M770 158c-13 5-27 10-39 16-27 13-41 34-41 63-1 30 13 52 39 65 9 5 18 9 28 12 15 5 22 15 20 31-2 34-14 65-37 91-10 12-23 16-38 9-8-4-17-7-25-10-29-10-55-4-76 17-21 20-26 51-14 78 2 5 4 11 6 15 8 15 4 27-7 37-25 22-54 36-88 39-16 1-27-4-33-20-2-8-5-15-9-23-14-26-35-40-64-39-30 0-51 15-63 41-5 10-8 19-12 28-4 15-15 22-29 21-37-3-70-16-97-41-10-10-13-22-7-36 4-8 7-17 10-25 10-27 5-51-13-72-19-21-44-27-72-20-8 3-17 6-25 10-16 8-28 4-39-9-21-25-35-54-38-87-3-22 3-29 23-38 6-2 12-5 18-8 25-14 39-36 38-65-1-30-15-51-42-64-7-3-13-6-20-8-15-5-21-16-20-32 2-30 12-57 29-82 15-23 24-26 50-15 27 11 53 11 78-6 31-22 41-59 24-99-6-15-7-28 5-39 27-23 57-38 92-40 16-1 28 4 33 21 2 7 5 15 9 22 12 27 39 44 67 43 28-1 54-20 64-47 3-6 5-12 7-18 9-20 17-26 39-23 29 4 57 15 80 34 18 14 20 24 12 45-3 6-5 12-7 18-11 29-6 55 16 76 22 22 48 27 77 16 11-4 23-9 34-14 12-6 23-5 31 4 28 29 44 63 44 104 1 12-6 20-18 24z m-377-100c-99 1-178 82-178 181 1 98 82 177 181 176 98 0 177-80 176-179 0-99-80-178-179-178z m2 265c-47 1-87-37-88-84-1-48 37-87 85-89 47-1 87 38 88 85 1 47-38 87-85 88z m-1-127c-23 0-41 18-41 41 0 22 18 40 40 40 22 0 40-18 41-40 0-22-18-40-40-41z m438 264c-1 4-1 8-1 12-1 15 8 29 21 35 13 6 29 3 40-7l8-6c8-8 14-8 23-2 12 9 22 20 29 34 5 11 3 16-5 24-3 2-5 4-8 6-11 11-15 24-10 39 5 15 16 23 32 25 6 1 12 1 19 1 6 0 11 3 13 9 6 20 6 39-4 58-2 6-7 8-14 7-7-1-14-2-21-2-15 0-27 7-34 20-7 13-6 26 3 39 3 4 7 8 10 11 6 6 7 13 3 19-9 15-22 27-39 34-7 3-14 2-19-5-3-4-6-7-9-10-11-12-24-15-39-10-14 5-24 17-25 33 0 2 0 5 0 8 0 9-4 13-12 15-16 5-33 4-49-2-8-3-12-8-11-17 1-4 1-8 1-12 0-15-7-27-20-33-14-7-27-5-39 4-4 3-8 7-11 11-6 5-12 6-18 2-17-10-29-23-35-41-3-7-2-13 5-18 4-3 7-6 10-9 11-10 14-22 11-36-4-14-14-23-29-26-4-1-9-1-13-1-9 0-14-5-16-13-4-17-4-33 2-49 4-11 8-13 20-12 3 0 7 0 10 0 15 0 26-7 32-21 7-14 5-27-4-39-3-3-5-6-8-8-5-6-6-12-2-19 8-14 19-24 33-32 12-7 17-6 26 5 10 11 22 17 37 15 20-2 33-17 34-40 1-8 4-14 12-16 17-5 34-4 51 3 7 3 11 8 10 17z m-130 144c-22 46-3 100 42 123 45 22 100 4 123-42 22-45 4-100-42-122-45-23-100-4-123 41z m63 81c-22-11-31-38-21-60 10-22 37-31 59-21 22 11 32 38 21 60-10 21-37 31-59 21z m29-59c-10-5-23-1-28 9-5 10-1 23 9 28 10 5 22 1 28-9 5-10 1-23-9-28z m198-242c-2 1-5 2-8 3-6 2-10 6-10 13-1 6 1 11 7 14 2 1 3 2 5 3 4 2 5 4 4 7-1 8-4 14-9 19-3 2-6 3-9 1-1-1-3-1-5-2-6-3-11-2-16 2-5 4-7 10-5 16 0 1 1 3 1 4 2 3 1 5-2 7-6 5-12 7-20 7-3 0-5-1-6-5-1-2-1-3-2-5-2-6-7-9-13-10s-11 3-14 8c-1 2-2 4-3 6-1 3-4 4-7 4-8-2-14-5-20-11-2-2-2-5 0-8 1-2 1-3 2-5 3-6 2-11-1-16-4-5-9-6-15-5-2 0-4 1-6 1-3 2-6 0-8-2-4-6-6-13-6-20-1-4 1-6 5-7 2-1 3-1 4-2 6-2 9-7 10-13 0-6-3-11-8-14-1-1-3-2-4-3-3-1-4-3-4-7 1-6 4-12 8-17 4-4 6-5 11-2 6 3 11 3 17 0 7-4 10-11 7-20-1-4-1-6 2-8 6-5 13-7 20-7 4 0 6 1 7 5 0 2 1 3 1 5 3 6 8 10 14 10 6 1 12-3 15-8 0-2 1-3 2-4 2-4 4-5 8-4 6 1 12 4 17 9 3 3 3 5 1 9 0 2-1 3-2 4-2 6-2 12 2 17 5 5 10 6 16 5 3-1 6-2 8-3 3-1 5 0 7 2 5 6 8 14 7 23 0 2-2 4-5 4z m-78-28c-21-2-40 13-42 35-2 21 14 39 35 41 21 2 40-14 42-35 2-21-14-40-35-41z m-5 56c-10 0-18-9-17-20 0-10 9-18 20-17 10 1 18 10 17 20-1 10-10 18-20 17z m2-27c-5-1-9 3-9 8-1 5 3 9 8 9 4 1 9-3 9-7s-3-9-8-10z" />
<glyph glyph-name="ui-unlock" horiz-adv-x="1000" unicode="&#xec8c;" d="M761 462c1 14 2 29 2 44 0 190-117 344-263 344-119 0-220-104-252-247h113c23 74 77 126 139 126 84 0 152-94 152-210 0-17-2-34-5-51h-358c-109 0-198-89-198-198v-222c0-109 89-198 198-198h422c110 0 199 89 199 198v222c0 92-64 169-149 192z m-213-341v-64c0-55-21-99-48-99-26 0-48 45-48 99v64c-39 18-66 57-66 102 0 63 51 114 114 114 63 0 114-51 114-114 0-45-27-84-66-102z" />
<glyph glyph-name="ui-volume" horiz-adv-x="1000" unicode="&#xec94;" d="M480 387l2-1c-1-1-2 0-2 1z m320-446c-8 3-15 5-22 9-22 13-30 46-14 68 13 17 28 33 41 50 68 91 100 194 94 307-6 113-48 210-125 294-12 13-20 27-18 46 3 22 19 39 42 42 1 1 2 2 3 2h9c20-3 34-17 46-31 24-28 46-57 64-88 40-67 65-140 75-218 2-14 3-29 5-43v-58c-1-3-1-7-2-10-3-24-4-48-9-72-19-95-60-180-123-255-15-18-28-37-53-43h-13z m-119 112c-22 0-38 10-46 30-9 21-3 39 10 56 17 20 34 40 47 62 33 55 45 115 39 178-7 69-35 129-83 180-16 17-22 35-13 58 11 29 51 40 76 20 21-18 38-41 54-64 33-49 54-103 63-162 10-68 4-135-20-200-20-54-51-102-91-143-10-10-22-16-36-15z m-16 290c-1-61-25-118-75-165-16-15-34-19-55-10-19 8-29 23-30 43-1 17 7 31 19 42 23 23 37 51 40 83 4 42-9 79-39 109-12 12-21 26-19 45 1 19 11 33 28 41 17 8 35 7 50-5 28-21 47-49 61-80 14-31 20-62 20-103z m-262 6c0-85 1-170 0-255 0-12-5-29-14-34-8-5-26 0-35 7-67 48-134 97-198 150-13 10-16 36-17 55 0 63 2 125 5 188 1 10 9 23 17 30 63 49 126 97 190 144 10 7 29 12 38 8 9-5 15-23 15-36 2-86-1-172-1-257 0 0-2 1 0 0z m-322 1c0-31 0-63 1-95 0-15-5-22-21-24-56-6-61-3-61 54 0 51 1 103 0 154 0 22 7 31 31 31 50 1 50 2 50-48 0-24 0-48 0-72z" />
<glyph glyph-name="ui-zoom-in" horiz-adv-x="1000" unicode="&#xec97;" d="M982 61l-235 216c27 54 43 114 43 178 0 218-177 395-395 395-218 0-395-177-395-395 0-218 177-395 395-395 64 0 124 16 178 43l216-235c21-23 56-24 78-2l117 117c22 22 21 57-2 78z m-587 153c-133 0-241 108-241 241s108 241 241 241c133 0 241-108 241-241s-108-241-241-241z m125 283h-89v89c0 12-10 23-23 23h-29c-13 0-23-11-23-23v-89h-89c-13 0-23-11-23-23v-29c0-13 10-23 23-23h89v-89c0-13 10-23 23-23h29c13 0 23 10 23 23v89h89c13 0 23 10 23 23v29c0 12-10 23-23 23z" />
<glyph glyph-name="ui-zoom-out" horiz-adv-x="1000" unicode="&#xec98;" d="M982 61l-235 216c27 54 43 114 43 178 0 218-177 395-395 395-218 0-395-177-395-395 0-218 177-395 395-395 64 0 124 16 178 43l216-235c21-23 56-24 78-2l117 117c22 22 21 57-2 78z m-587 153c-133 0-241 108-241 241s108 241 241 241c133 0 241-108 241-241s-108-241-241-241z m125 283h-253c-13 0-23-10-23-23v-29c0-13 10-23 23-23h253c13 0 23 10 23 23v29c0 12-10 23-23 23z" />
<glyph glyph-name="ui-text-chat" horiz-adv-x="1000" unicode="&#xec86;" d="M892 827h-784c-59 0-108-49-108-108v-467c0-59 49-108 108-108h223v-271l271 271h290c59 0 108 49 108 108v467c0 59-49 108-108 108z m-37-498c0-12-9-22-21-22h-684c-12 0-22 10-22 22v28c0 12 10 22 22 22h684c12 0 21-10 21-22v-28z m0 155c0-12-9-21-21-21h-684c-12 0-22 9-22 21v29c0 12 10 21 22 21h684c12 0 21-9 21-21v-29z m0 156c0-12-9-22-21-22h-684c-12 0-22 10-22 22v28c0 12 10 22 22 22h684c12 0 21-10 21-22v-28z" />
<glyph glyph-name="ui-text-loading" horiz-adv-x="1000" unicode="&#xec87;" d="M892 827h-783c-60 0-109-49-109-108v-467c0-59 49-108 109-108h222v-271l271 271h290c59 0 108 49 108 108v467c0 59-49 108-108 108z m-660-440c-51 0-92 41-92 92 0 51 41 93 92 93 51 0 93-42 93-93 0-51-42-92-93-92z m268 0c-51 0-92 41-92 92 0 51 41 93 92 93 51 0 93-42 93-93 0-51-42-92-93-92z m268 0c-51 0-93 41-93 92 0 51 42 93 93 93 51 0 92-42 92-93 0-51-41-92-92-92z" />
<glyph glyph-name="ui-user-group" horiz-adv-x="1000" unicode="&#xec8d;" d="M692 185c-125 76-255 78-380 6-45-26-73-59-87-95h544c-12 34-38 66-77 89z m-195 419c89 0 160-70 160-159 1-88-71-160-159-161-89-1-160 71-160 161 0 89 70 159 159 159z m467-434c-37 32-80 45-127 47-41 1-81-5-118-27 39-30 63-60 74-94h207c0 26-12 53-36 74z m-683 20c-4 3-6 5-9 6-78 33-154 31-224-17-32-22-48-53-48-83h208c13 35 38 66 73 94z m447 154c0 54 44 99 98 99 54 1 100-44 100-98 1-53-45-100-97-100-56-1-101 44-101 99z m-553-98c-56-1-100 42-100 98-1 54 44 99 99 100 53 0 99-45 99-98 1-56-43-100-98-100z" />
<glyph glyph-name="ui-user" horiz-adv-x="1000" unicode="&#xec8e;" d="M859 47c-230 139-469 144-700 11-82-47-134-109-159-176h1000c-22 64-69 122-141 165z m-359 771c163 0 294-130 295-292 1-162-131-295-293-297-164-1-295 131-296 296 0 163 130 293 294 293z" />
<glyph glyph-name="ui-password" horiz-adv-x="1000" unicode="&#xec71;" d="M967 464h-504c-18 0-42 12-53 27 0 0-92 123-189 123-122 0-221-99-221-222 0-122 99-221 221-221 97 0 189 123 189 123 11 15 35 26 53 26h118v1h123v-51h-93v-183h77v93h53v-59h78v59h44v-93h82l0 93v90h-93v51h148v110c0 18-15 33-33 33z m-746-183c-62 0-112 50-112 111 0 62 50 112 112 112s112-50 112-112c0-61-50-111-112-111z" />
<glyph glyph-name="ui-music" horiz-adv-x="1000" unicode="&#xec6b;" d="M990 510c-1 12-3 24-5 36-3 11-7 20-10 27-1 1-1 2-2 4-32 52-79 87-130 119-37 23-75 43-114 62-17 8-27 20-28 40-1 40-3 41-42 50-7 4-12 2-18 0-21-13-28-31-28-56 1-174 1-348 1-522 0-8-1-15-1-23-139 66-269 55-386-40-118-94-96-242 42-301 115-49 272-19 361 69 40 41 62 88 61 147-2 148 0 297-1 445 0 17 5 22 22 19 100-17 180-64 238-148 10-15 18-30 28-45 12 49 15 88 12 117z m-15 63c3-7 7-16 10-27-2 9-5 18-10 27z m-887-398c-18 0-26 13-21 33 19 80 93 147 177 161 6 1 11 2 17 3 17 3 32-1 35-20 2-18-11-24-27-27-12-2-25-3-37-7-61-19-100-59-119-119-4-14-9-24-25-24z m-55 135c-16-1-26 13-23 30 11 49 67 95 118 96 13 0 24-7 25-21 2-17-9-25-24-27-36-5-61-23-72-58-1-3-2-6-3-9-5-8-12-11-21-11z m665-334c17 0 27-13 23-30-10-50-67-96-117-96-14 0-24 6-25 21-2 17 8 24 24 26 36 5 60 24 71 59 1 3 3 6 4 8 4 8 11 12 20 12z" />
<glyph glyph-name="ui-love" horiz-adv-x="1000" unicode="&#xec65;" d="M500 597c-142 273-504 161-500-110 4-294 367-346 500-540v-1l0 1c133 194 496 246 500 540 4 271-358 383-500 110z" />
<glyph glyph-name="ui-love-add" horiz-adv-x="1000" unicode="&#xec62;" d="M661 340h-101c-32 0-58 26-58 58v112c0 32 26 58 58 58h101v93c-90 29-198-1-258-116-115 219-406 129-403-89 4-237 296-278 403-435v0l0 0c57 84 168 135 259 201-1 3-1 6-1 10v108z m310 179h-133v131c0 16-14 29-30 29h-71c-16 0-30-13-30-29l0-131h-130c-16 0-29-13-29-29v-72c0-16 13-29 29-29h130l0-133c0-16 14-29 30-29h71c17 0 30 13 30 29v133h133c16 0 29 13 29 29v72c0 16-13 29-29 29z" />
<glyph glyph-name="ui-love-remove" horiz-adv-x="1000" unicode="&#xec64;" d="M529 405v117c0 34 28 62 61 62h229c-80 136-298 161-395-25-120 232-427 137-424-93 4-250 312-293 424-459v0l0 0c91 134 310 188 392 336h-226c-33 0-61 28-61 62z m440 127h-361c-17 0-31-14-31-31v-75c0-17 14-31 31-31h361c17 0 31 14 31 31v75c0 17-14 31-31 31z" />
<glyph glyph-name="ui-email" horiz-adv-x="1000" unicode="&#xec56;" d="M953 372c-3-78-27-146-71-204s-110-86-197-86c-29 0-54 8-75 24-21 17-36 40-45 69-15-30-33-53-55-68-23-15-49-23-79-23-53 0-94 21-122 64s-39 98-31 168c9 90 35 162 78 216 43 54 96 81 157 81 43 0 78-4 105-14 26-9 55-23 86-43l-1-2h2l-27-304c-2-31 0-52 6-64 6-11 14-17 24-17 40 0 72 19 96 58 25 38 38 87 41 145 6 122-18 216-71 284-54 68-136 102-247 102-109 0-194-37-258-110s-98-172-104-298c-6-123 20-220 78-291 58-71 141-107 249-107 30 0 61 3 93 10 33 6 61 15 84 25l21-89c-24-15-55-27-92-35-37-9-73-13-108-13-145 0-256 44-334 134-78 89-114 211-108 366 6 153 52 275 138 365s200 135 343 135c140 0 247-43 321-128 74-85 108-202 103-350z m-542-56c-4-42-1-75 9-97s25-33 46-33c20 0 37 5 52 16 15 11 29 31 40 60l22 242c-8 2-16 4-23 5-8 1-15 2-23 2-37 0-66-16-85-49s-32-81-38-146z" />
<glyph glyph-name="exclamation-circle" horiz-adv-x="1000" unicode="&#xef19;" d="M500 788c-242 0-437-196-437-438s195-438 437-438 438 196 438 438-196 438-438 438z m0-162c19 0 39-1 59-4l-8-370c-18-3-34-4-51-4-17 0-34 1-51 4l-8 370c20 3 39 4 59 4z m56-548c-20-2-38-4-56-4-18 0-37 2-56 4-3 19-4 37-4 56 0 18 1 37 4 56 19 2 37 4 55 4 19 0 37-2 56-4 4-19 5-38 5-56 0-18-1-37-4-56z" />
<glyph glyph-name="info-circle" horiz-adv-x="1000" unicode="&#xef4e;" d="M500 788c-242 0-437-196-437-438s195-438 437-438 438 196 438 438-196 438-438 438z m-65-167c8 1 17 3 26 3 10 1 18 1 26 1 8 0 17 0 27-1 9 0 18-2 26-3 2-8 3-17 3-25 0-8 1-16 1-24 0-8-1-16-1-25 0-8-1-16-3-25-8-1-17-2-26-2-9-1-18-1-26-1-8 0-17 0-26 1-10 0-19 1-27 2-3 17-4 34-4 50 0 15 1 32 4 49z m163-546h-196c-3 13-4 26-4 39 0 6 0 13 1 20 0 7 2 14 3 20h48v226h-48c-1 6-3 13-3 20-1 7-1 13-1 20 0 13 1 26 4 39h148v-305h48c2-6 3-13 3-20 1-7 1-14 1-20 0-13-1-26-4-39z" />
<glyph glyph-name="minus-circle" horiz-adv-x="1000" unicode="&#xef98;" d="M500 788c-242 0-437-196-437-438 0-242 195-438 437-438 242 0 438 196 438 438 0 242-196 438-438 438z m302-467c-1-9-2-19-5-30h-594c-2 11-4 21-5 31-1 10-1 20-1 30 0 9 0 18 1 27 1 9 3 19 5 30h594c3-11 4-21 5-31 1-10 1-20 1-30 0-9 0-18-1-27z" />
<glyph glyph-name="plus-circle" horiz-adv-x="1000" unicode="&#xefc0;" d="M500 788c-242 0-437-196-437-438 0-242 195-438 437-438 242 0 438 196 438 438 0 242-196 438-438 438z m302-467c-1-9-2-19-5-30h-238v-238c-11-3-21-4-31-5-10-1-20-1-30-1-9 0-18 0-27 1-9 1-19 2-30 5v238h-238c-2 11-4 21-5 31-1 10-1 20-1 30 0 9 0 18 1 27 1 9 3 19 5 30h238v238c11 2 21 4 31 5 10 1 20 1 30 1 9 0 18 0 27-1 9-1 19-3 30-5v-238h238c3-11 4-21 5-31 1-10 1-20 1-30 0-9 0-18-1-27z" />
<glyph glyph-name="question-circle" horiz-adv-x="1000" unicode="&#xefca;" d="M500 788c-242 0-437-196-437-438 0-242 195-438 437-438 242 0 438 196 438 438 0 242-196 438-438 438z m50-742c-21-3-42-5-62-5-21 0-42 2-63 5-3 21-5 42-5 63s2 41 5 63c21 3 42 5 62 5 21 0 42-2 63-5 4-22 5-43 5-63 0-21-1-42-5-63z m114 370c-10-20-23-36-38-49-14-14-29-24-44-32-15-9-28-15-37-19v-77c-20-3-39-5-58-5s-36 2-53 5v146c13 2 26 6 41 10 14 4 27 10 39 18 12 7 22 16 29 27 8 11 12 25 12 42 0 24-9 42-27 55-17 13-41 19-70 19-12 0-22 0-32-1-9-1-18-2-26-4-7-2-16-4-24-7-8-3-17-5-26-9-8 15-14 30-20 46-5 16-8 33-9 50 15 5 29 9 41 13 12 4 25 6 37 9 11 2 23 4 35 4 12 1 25 2 38 2 69 0 120-16 155-47 34-31 52-73 52-127 0-27-5-50-15-69z" />
<glyph glyph-name="circled-down" horiz-adv-x="1000" unicode="&#xea6b;" d="M63 350c0-241 196-438 437-438s438 197 438 438-196 438-438 438-437-196-437-438z m460-40l202 202c9 9 25 9 35 0l59-59c9-10 9-26 0-35l-296-296c-10-10-26-10-35 0l-296 296c-10 9-10 25 0 35l59 59c9 9 25 9 35 0l202-202c9-10 25-10 35 0z" />
<glyph glyph-name="circled-left" horiz-adv-x="1000" unicode="&#xea6c;" d="M500 788c-241 0-437-196-437-438s196-438 437-438 438 197 438 438-196 438-438 438z m-40-461l202-202c9-9 9-25 0-35l-59-59c-10-9-26-9-35 0l-296 296c-10 10-10 26 0 35l296 296c9 10 25 10 35 0l59-58c9-10 9-26 0-36l-202-202c-10-9-10-25 0-35z" />
<glyph glyph-name="circled-right" horiz-adv-x="1000" unicode="&#xea6d;" d="M63 350c0-241 196-438 437-438s438 197 438 438-196 438-438 438-437-196-437-438z m477 12l-202 202c-9 10-9 26 0 36l59 58c10 10 26 10 35 0l296-296c10-9 10-25 0-35l-296-296c-9-9-25-9-35 0l-59 59c-9 10-9 26 0 35l202 202c10 10 10 26 0 35z" />
<glyph glyph-name="circled-up" horiz-adv-x="1000" unicode="&#xea6e;" d="M500-88c242 0 438 197 438 438s-196 438-438 438-437-196-437-438 196-438 437-438z m-12 478l-202-202c-10-9-26-9-35 0l-59 59c-10 10-10 26 0 35l296 296c9 10 25 10 35 0l296-296c9-9 9-25 0-35l-59-59c-10-9-26-9-35 0l-202 202c-10 10-26 10-35 0z" />
<glyph glyph-name="alarm" horiz-adv-x="1000" unicode="&#xeea3;" d="M893 94c0 2-3 5-5 7-19 15-39 29-57 46-38 38-63 83-67 139-2 38-2 76-4 114-2 46-8 92-21 136-27 89-78 152-168 174-2 1-5 6-5 9-1 34-24 62-56 68-31 5-61-15-71-47-2-4-3-9-3-14-1-8-4-15-5-16-1 0-2 0-3-1-63-16-110-53-141-113-20-38-32-78-38-121-9-55-11-110-11-166 1-46-12-88-38-126-23-33-52-60-85-81-3-2-7-5-7-8-1-22-1-43-1-65h787c0 22 0 43-1 65z m-268-107h-249c-8 0-11-6-8-13l22-48c3-7 12-14 20-14h182c7 0 16 6 20 14l21 48c3 7-1 13-8 13z" />
<glyph glyph-name="basket" horiz-adv-x="1000" unicode="&#xeeb0;" d="M796 540l62 75c5 6 4 15-2 20l-47 39c-6 5-15 4-20-2l-109-132c-5-5-15-10-23-10h-314c-8 0-18 4-23 10l-109 132c-5 6-14 7-20 2l-47-39c-6-5-7-14-2-20l62-75c5-5 3-10-5-10h-122c-8 0-14-7-14-14v-100c0-8 6-14 14-14h63c7 0 15-6 16-14l54-352c1-7 8-14 16-14h548c8 0 15 7 17 14l53 352c2 8 9 14 17 14h63c7 0 14 6 14 14v100c0 7-7 14-14 14h-123c-7 0-10 5-5 10z m-451-432h-32c-8 0-15 6-16 14l-28 234c-1 8 4 14 12 14h65c7 0 14-6 14-14v-234c-1-8-7-14-15-14z m194 0h-65c-8 0-14 6-14 14v234c0 8 7 14 14 14h65c8 0 14-6 14-14v-234c0-8-6-14-14-14z m164 0h-32c-8 0-14 6-14 14v234c0 8 6 14 14 14h64c8 0 14-6 13-14l-29-234c-1-8-8-14-16-14z" />
<glyph glyph-name="bulb-alt" horiz-adv-x="1000" unicode="&#xeec9;" d="M500 698c10 0 18 8 18 18v54c0 10-8 18-18 18s-18-8-18-18v-54c0-10 8-18 18-18z m-188-38c4-5 10-9 16-9 3 0 6 1 9 3 8 5 11 16 6 24l-26 47c-5 8-16 11-25 6-8-4-11-15-6-24l26-47z m-101-103l-46 27c-9 5-20 2-25-7-4-8-1-19 7-24l46-27c3-2 6-2 9-2 6 0 12 3 15 9 5 8 2 19-6 24z m-56-172h-52c-10 0-18-8-18-18 0-10 8-18 18-18h52c10 0 18 8 18 18 0 10-8 18-18 18z m743 0h-53c-10 0-18-8-18-18 0-10 8-18 18-18h53c9 0 17 8 17 18s-8 18-17 18z m-38 192c-5 9-16 12-24 7l-46-27c-9-5-12-16-7-24 3-6 9-9 16-9 3 0 6 1 8 2l46 27c9 5 12 16 7 24z m-196 77c2-2 6-3 8-3 7 0 12 4 16 9l26 47c5 8 2 19-6 24-9 5-19 2-24-6l-27-47c-5-8-2-19 7-24z m-184-360c2-12 8-16 20-16 12 0 19 4 21 16l14 96c1 6 2 13 2 19v47c0 21-14 32-37 32s-36-11-36-32v-47c0-6 1-13 2-19l14-96z m20-42c-21 0-38-18-38-40s17-39 38-39 38 18 38 39-17 40-38 40z m-66 361c-114-32-184-109-202-225-19-113 21-207 113-277 15-12 32-26 37-43 15-45 44-61 89-56 10 2 20 1 30 1h42c43 0 53 8 72 46 8 17 18 36 33 46 88 64 129 149 125 257-8 169-176 295-339 251z m189-459c-19-15-36-34-50-54-29-46-112-48-143-4-17 23-37 46-60 63-77 61-108 165-75 259 32 93 118 152 217 149 113-3 207-106 207-234-1-70-33-132-96-179z m-64-176c-19 1-39 0-58 0-19 0-39 1-58 0-7-1-17-4-20-10-3-5 1-15 5-21 32-46 114-46 146 0 4 5 8 16 5 21-2 6-13 9-20 10z" />
<glyph glyph-name="cart" horiz-adv-x="1000" unicode="&#xeed2;" d="M893 569l-631 0-27 91c-4 14-15 25-28 28l-93 25c-4 1-7 2-11 2-18 0-34-13-39-30-3-11-2-22 4-31s14-17 25-20l70-19 143-516c-20-10-33-31-33-54 0-33 27-61 60-61s60 28 60 61c0 1 0 2 0 2h292c0-1 0-1 0-2 0-33 27-61 60-61s60 28 60 61c0 31-23 56-53 60-72 12-368 26-368 26l-9 38h368c19 0 36 13 41 31l80 281h29c25 0 45 19 45 44 0 24-20 44-45 44z m-469-306h-70c-1 0-4 0-5 4-2 6-4 13-4 13l-55 191c0 1 0 2 1 3 1 1 1 1 2 1h84c2 0 3-1 3-2l46-205 0-1c1 0 1-1 1-1 0-2-2-3-3-3z m176 209l-37-207c-1-1-2-2-3-2h-52c-2 0-3 1-3 2l-38 206c0 1 0 2 1 3 0 1 1 1 2 1h127c1 0 2 0 2-1 1-1 1-2 1-2z m177-1l-59-206c0-1-1-2-3-2h-71c-1 0-2 0-3 1 0 1-1 2 0 3l46 206c0 1 1 2 3 2h84c1 0 2 0 2-1 1-1 1-2 1-3z" />
<glyph glyph-name="cart-alt" horiz-adv-x="1000" unicode="&#xeed1;" d="M820 268h-399c-6 0-13 4-16 10l-183 419c-2 6-9 10-15 10h-134c-6 0-11-5-11-11v-33c0-6 5-11 11-11h98c6 0 13-4 15-10l184-419c2-6 9-10 15-10h435c6 0 11 5 11 11v33c0 6-5 11-11 11z m-346-110c-45 0-82-37-82-82s37-83 82-83 83 37 83 83-37 82-83 82z m275 0c-46 0-83-37-83-82s37-83 83-83 82 37 82 83-37 82-82 82z m181 439h-582c-6 0-9-4-7-10l14-35c2-5 9-10 15-10h538c6 0 13 5 15 10l14 35c2 6-1 10-7 10z m-88-219h-406c-6 0-9-5-7-10l14-35c2-6 9-10 15-10h362c6 0 13 4 15 10l14 35c2 5-1 10-7 10z m44 110h-494c-6 0-9-5-7-10l14-35c2-6 9-10 15-10h450c6 0 13 4 15 10l14 35c2 5-1 10-7 10z" />
<glyph glyph-name="clock-time" horiz-adv-x="1000" unicode="&#xeedc;" d="M500 788c-239 0-432-193-437-428-5-245 189-444 430-448 251-3 440 198 444 429 5 246-194 447-437 447z m3-788c-196-1-353 156-353 350 0 193 157 350 350 350 193 0 349-157 350-350 1-186-150-348-347-350z m27 612h-59c-4 0-7-3-7-7v-210c0-4-4-7-8-7h-134c-4 0-7-3-7-7v-60c0-4 3-7 7-7h208c4 0 7 3 7 7v284c0 4-3 7-7 7z" />
<glyph glyph-name="cloud-download" horiz-adv-x="1000" unicode="&#xeee5;" d="M861 405c-20 17-28 34-32 60-12 89-63 151-145 182-86 33-170 24-242-37-15-14-30-21-48-23-34 42-86 69-144 69-104 0-187-84-187-187 0-46 16-87 43-120-31-52-37-113-16-174 30-87 107-141 204-141 71 0 143 0 214 0 73 0 146 0 219 0 90 1 168 55 198 139 30 83 6 175-64 232z m-776 64c0 91 74 164 165 164 51 0 97-23 127-60 7-9 13-18 19-29 7-15 13-32 16-49 1-9 2-17 2-26 0-91-74-164-164-164-29 0-57 7-80 20-10 6-19 12-28 20-7 6-13 12-19 19-23 28-38 65-38 105z m814-279c-23-76-91-126-173-126-72 0-143 0-215 0-73 0-146 0-219 0-84 0-153 50-176 127-15 48-10 95 12 136 9-8 20-15 31-22-15-28-18-61-9-96 17-66 71-107 145-107 140 0 281 0 422 0 76 0 133 41 149 108 17 66-14 129-81 165-9 6-19 20-19 30 2 89-38 156-111 182-82 28-155 2-209-76-3-4-6-8-11-13l-1 0c-3 20-9 39-18 57 11 2 20 8 31 19 64 65 144 77 226 46 79-31 125-92 129-179 0-23 9-36 27-49 67-46 94-126 70-202z m-742 304c4 3 10 3 13 0l51-51v136c0 5 4 9 9 9h36c5 0 9-4 9-9v-140l54 55c4 3 9 3 13 0l21-22c4-3 4-9 0-12l-107-108c-4-3-9-3-13 0l-107 107c-4 4-4 10 0 13l21 22z" />
<glyph glyph-name="cloud-refresh" horiz-adv-x="1000" unicode="&#xeee6;" d="M861 405c-20 17-28 34-32 60-12 89-63 151-145 182-86 33-170 24-242-37-15-14-30-21-48-23-34 42-86 69-144 69-104 0-187-84-187-187 0-46 16-87 43-120-31-52-37-113-16-174 30-87 107-141 204-141 71 0 143 0 214 0 73 0 146 0 219 0 90 1 168 55 198 139 30 83 6 175-64 232z m-776 64c0 91 74 164 165 164 51 0 97-23 127-60 7-9 13-18 19-29 7-15 13-32 16-49 1-9 2-17 2-26 0-91-74-164-164-164-29 0-57 7-80 20-10 6-19 12-28 20-7 6-13 12-19 19-23 28-38 65-38 105z m814-279c-23-76-91-126-173-126-72 0-143 0-215 0-73 0-146 0-219 0-84 0-153 50-176 127-15 48-10 95 12 136 9-8 20-15 31-22-15-28-18-61-9-96 17-66 71-107 145-107 140 0 281 0 422 0 76 0 133 41 149 108 17 66-14 129-81 165-9 6-19 20-19 30 2 89-38 156-111 182-82 28-155 2-209-76-3-4-6-8-11-13l-1 0c-3 20-9 39-18 57 11 2 20 8 31 19 64 65 144 77 226 46 79-31 125-92 129-179 0-23 9-36 27-49 67-46 94-126 70-202z m-639 211c-23-2-43 7-59 26l25 25h-76v-77c8 9 16 16 24 25 16-18 34-30 57-35 22-5 44-4 66 5 35 16 56 43 64 82h-39c-8-30-34-50-62-51z m-9 136c26 2 48-12 59-28-7-7-15-15-24-23h75v75c-8-8-16-15-24-23-34 36-75 48-122 29-36-14-57-42-65-81h39c8 29 33 49 62 51z" />
<glyph glyph-name="cloud-upload" horiz-adv-x="1000" unicode="&#xeee7;" d="M861 405c-20 17-28 34-32 60-12 89-63 151-145 182-86 33-170 24-242-37-15-14-30-21-48-23-34 42-86 69-144 69-104 0-187-84-187-187 0-46 16-87 43-120-31-52-37-113-16-174 30-87 107-141 204-141 71 0 143 0 214 0 73 0 146 0 219 0 90 1 168 55 198 139 30 83 6 175-64 232z m-776 64c0 91 74 164 165 164 51 0 97-23 127-60 7-9 13-18 19-29 7-15 13-32 16-49 1-9 2-17 2-26 0-91-74-164-164-164-29 0-57 7-80 20-10 6-19 12-28 20-7 6-13 12-19 19-23 28-38 65-38 105z m814-279c-23-76-91-126-173-126-72 0-143 0-215 0-73 0-146 0-219 0-84 0-153 50-176 127-15 48-10 95 12 136 9-8 20-15 31-22-15-28-18-61-9-96 17-66 71-107 145-107 140 0 281 0 422 0 76 0 133 41 149 108 17 66-14 129-81 165-9 6-19 20-19 30 2 89-38 156-111 182-82 28-155 2-209-76-3-4-6-8-11-13l-1 0c-3 20-9 39-18 57 11 2 20 8 31 19 64 65 144 77 226 46 79-31 125-92 129-179 0-23 9-36 27-49 67-46 94-126 70-202z m-742 254c4-3 10-3 13 0l51 51v-136c0-5 4-9 9-9h36c5 0 9 4 9 9v140l54-55c4-3 9-3 13 0l21 22c4 3 4 9 0 12l-107 108c-4 3-9 3-13 0l-107-107c-4-4-4-10 0-13l21-22z" />
<glyph glyph-name="cloud" horiz-adv-x="1000" unicode="&#xeee8;" d="M860 406c-21 17-29 35-33 61-12 91-64 154-148 186-87 33-172 24-245-39-22-18-41-25-69-23-93 8-168-49-193-138-4-14-14-30-26-40-75-62-102-152-71-241 31-88 110-143 207-143 73 0 146 0 219 0 74 0 148 0 222 0 92 0 171 56 201 141 31 85 7 178-64 236z m39-219c-25-77-94-127-177-128-73 0-146 0-218 0-74 0-149 0-223 0-86 0-156 50-180 129-24 80 4 158 74 209 12 9 22 25 25 39 18 85 92 140 179 123 26-5 40 0 59 19 65 67 146 79 230 47 80-31 128-93 131-182 1-24 9-37 28-50 69-47 96-128 72-206z m-116 189c-10 5-21 20-20 30 2 91-39 159-113 185-84 29-158 2-213-77-3-4-6-8-11-13-103 51-177 11-191-100-2-10-12-22-22-27-65-38-95-99-77-167 17-67 73-109 147-109 144 0 287 0 430 0 78 1 135 42 152 110 17 68-15 131-82 168z" />
<glyph glyph-name="code-not-allowed" horiz-adv-x="1000" unicode="&#xeee9;" d="M903 520c-22 52-53 99-94 139-40 41-87 72-139 94-54 23-111 35-170 35-59 0-116-12-170-35-52-22-99-53-139-94-41-40-72-87-94-139-23-54-34-111-34-170 0-59 11-116 34-170 22-52 53-99 94-139 40-41 87-72 139-94 54-23 111-35 170-35 59 0 116 12 170 35 52 22 99 53 139 94 41 40 72 87 94 139 23 54 35 111 35 170 0 59-12 116-35 170z m-403 178c93 0 180-36 246-102 57-57 92-131 100-210l-242 104c-3 1-5 0-5-3v-64c0-2 2-5 5-6l174-67c3-1 3-3 0-4l-151-59-92 92 28 116c3 14 5 24 5 29 0 7-2 13-7 17-4 4-11 6-20 6-10 0-16-3-20-9s-7-16-11-32l-20-83-202 203c61 46 134 72 212 72z m-276-136l102-101-172-75c7 65 31 125 70 176z m276-560c-93 0-180 36-246 102-56 56-90 128-99 205l242-104c2-1 4 0 4 2v65c0 3-2 5-5 6l-174 69c-2 1-2 2 0 3l155 60 88-89-28-115c-3-16-5-26-5-30 0-16 9-23 27-23 7 0 12 1 16 5 4 3 7 7 8 13 2 6 4 13 7 23l20 83 202-202c-60-47-134-73-212-73z m276 136l-99 98 168 73c-7-62-31-121-69-171z" />
<glyph glyph-name="computer" horiz-adv-x="1000" unicode="&#xeeee;" d="M890 724v1h-780v-1c-26-2-44-23-47-48v-526c0-10 2-19 6-27 10-17 25-26 45-26h282v-61h-88c-6 0-10-5-10-10v-41c0-5 4-10 10-10h385c5 0 9 5 9 10v41c0 5-4 10-9 10h-89v61h282c20 0 34 9 44 26 5 9 8 17 8 27v526c-3 25-24 46-48 48z m0-52v-522c0-3-1-5-4-5h-772c-3 0-4 2-4 5v526h780v-4z" />
<glyph glyph-name="console" horiz-adv-x="1000" unicode="&#xeef0;" d="M915 718h-830c-12 0-22-10-22-23v-690c0-13 10-23 22-23h830c13 0 23 10 23 23v690c0 12-10 23-23 23z m-12-677c0-13-10-23-23-23h-760c-12 0-22 10-22 23v618c0 12 10 22 22 22h760c13 0 23-10 23-22v-618z m-720 438c42-42 84-84 128-128-42-41-84-83-126-124 8-9 16-17 22-24l150 151-149 149c-7-7-15-15-25-24z m224-282h227v33h-227v-33z" />
<glyph glyph-name="copyright" horiz-adv-x="1000" unicode="&#xeef3;" d="M500-88c-65 0-124 12-178 34-54 22-100 53-138 92-38 39-67 85-88 138-21 53-32 111-32 174 0 62 11 120 32 174s51 99 88 138c39 39 84 70 138 92 54 22 113 34 178 34s125-11 178-33c54-22 100-53 138-92 38-39 67-86 89-139 21-53 31-111 31-174 0-63-10-121-31-174-22-53-51-99-89-138-38-39-84-70-138-92-53-22-113-34-178-34z m0 88c53 0 101 9 144 27 42 18 78 42 107 74 30 31 52 68 68 111 16 43 23 89 23 138s-8 96-23 138c-16 43-38 80-68 111-29 32-65 56-107 75-43 18-90 27-144 27s-101-9-143-27c-43-19-79-43-108-75-29-31-52-68-67-111-16-42-24-88-24-138s8-95 24-138c15-43 38-80 67-111 30-32 65-56 108-74 42-18 90-27 143-27z m121 237c8-12 14-28 18-47 5-19 7-38 7-59-23-8-44-14-64-17-20-3-41-4-64-4-37 0-70 6-98 19-28 13-52 31-70 52s-33 47-43 77c-10 29-15 60-15 93 0 32 5 63 15 92 9 30 24 56 43 78 18 22 42 40 69 53 27 14 59 20 94 20 27 0 49-1 67-4 17-3 37-9 60-18 0-16-1-33-4-53s-9-37-17-53c-19 7-34 11-47 13-13 2-27 3-42 3-35 0-62-12-80-34-19-22-29-55-29-97 0-45 10-78 30-99 20-21 46-32 78-32 18 0 33 1 45 3 12 2 28 6 47 14z" />
<glyph glyph-name="download-alt" horiz-adv-x="1000" unicode="&#xef07;" d="M635 109c-9-9-25-9-35 0l-295 287c-9 9-9 24 0 34l59 57c10 9 25 9 35 0l150-146v375c0 14 11 24 24 24h99c14 0 25-10 25-24v-365l140 136c9 9 25 9 35 0l58-57c10-10 10-25 0-34l-295-287z m-572 51v-201h874v201h-188l-112-109c-10-11-28-11-38 0l-113 109h-423z m201-101c0 20 16 36 37 36s37-16 37-36-17-36-37-36-37 16-37 36z m-132 0c0 20 16 36 37 36 20 0 37-16 37-36s-17-36-37-36c-21 0-37 16-37 36z" />
<glyph glyph-name="download" horiz-adv-x="1000" unicode="&#xef08;" d="M483 131c9-10 25-10 35 0l294 285c9 10 9 25 0 34l-59 57c-9 10-25 10-35 0l-139-135v364c0 13-11 24-25 24h-98c-14 0-25-11-25-24v-374l-149 145c-10 10-25 10-35 0l-59-57c-9-9-9-24 0-34l295-285z m333 137v-206h-632v206h-121v-267c0-34 27-61 60-61h754c33 0 60 27 60 61v267h-121z" />
<glyph glyph-name="delete" horiz-adv-x="1000" unicode="&#xef00;" d="M938 625c0 21-10 31-32 31l-541 0c-11 0-19-3-27-11-39-40-77-80-116-120-50-52-101-104-151-156-11-12-11-27 0-39 46-47 91-93 137-141 43-44 86-89 130-134 7-7 15-11 26-11l544 0c20 0 30 10 30 30v276c0 92 0 183 0 275z m-54-528c-3 0-5-1-8-1-166 0-331 0-497 1-4 0-10 2-14 6-68 70-137 141-205 212-12 11-23 23-34 35 2 2 3 4 5 5 78 81 155 161 233 241 5 5 10 8 18 8 163-1 327 0 490 0h12l0-507z m-145 410c-34-35-69-70-104-106-4-5-12-5-16 0-35 35-70 70-104 106-5 4-12 4-17-1-8-8-16-17-25-26-4-4-4-12 0-16 34-35 69-70 104-106 4-4 4-12 0-16-35-36-70-71-104-106-5-5-5-12 0-17 8-8 17-17 25-26 5-4 12-4 17 0l104 106c4 4 12 4 16 0 35-35 69-70 104-106 4-4 12-4 16 0 9 9 17 18 26 26 4 5 4 12 0 17-34 35-69 70-104 105-4 5-4 13 0 17 35 36 70 71 104 106 5 5 4 12 0 17l-26 26c-4 4-11 4-16 0z" />
<glyph glyph-name="downloaded" horiz-adv-x="1000" unicode="&#xef09;" d="M861 405c-20 17-28 34-32 60-12 89-63 151-145 183-86 32-170 23-242-38-15-14-30-21-48-23-34 42-86 69-144 69-104 0-187-84-187-187 0-46 16-87 43-120-31-52-37-113-16-174 30-87 107-141 204-141 71 0 143 0 214 0 73 0 146 0 219 0 90 1 168 55 198 139 30 83 6 175-64 232z m-776 64c0 91 74 164 165 164 51 0 97-23 127-60 7-9 13-18 19-29 7-15 13-32 16-49 1-9 2-17 2-26 0-91-74-164-164-164-29 0-57 7-80 20-10 6-19 12-28 20-7 6-13 12-19 19-23 28-38 65-38 105z m814-279c-23-76-91-126-173-126-72 0-143 0-215 0-73 0-146 0-219 0-84 0-153 50-176 127-15 48-10 95 12 136 9-8 20-15 31-22-15-28-18-61-9-96 17-66 71-107 145-107 140 0 281 0 422 0 76 0 133 41 149 108 17 66-14 129-81 165-9 6-19 20-19 30 2 89-38 156-111 182-82 28-155 2-209-76-3-4-6-8-11-13l-1 0c-3 20-9 39-18 57 11 2 20 8 31 19 64 65 144 77 226 46 79-31 125-92 129-179 0-23 9-36 27-49 67-46 94-126 70-202z m-696 176c2-2 6-2 8 0 48 44 95 88 143 132 2 2 2 6 0 8-9 11-19 22-28 33-2 2-6 2-8 0-34-33-68-65-102-97-2-2-6-2-8 0-12 13-24 25-36 38-2 2-6 2-8 0-10-9-21-18-32-28-2-2-2-5 0-7 24-27 47-53 71-79z" />
<glyph glyph-name="drag" horiz-adv-x="1000" unicode="&#xef0a;" d="M954 359l-176 176c-5 6-15 6-20 0l-35-35c-6-6-6-15 0-21l83-83h-217c-10 22-28 39-50 49v196l89-89c6-6 15-6 21 0l35 35c5 6 5 15 0 21l-176 175c-6 6-15 6-21 0l-175-176c-6-5-6-15 0-20l35-35c5-6 15-6 20 0l83 83v-193c-19-10-34-26-44-46h-212l83 83c6 6 6 15 0 21l-34 35c-6 6-15 6-21 0l-176-176c-6-6-6-15 0-21l176-175c6-6 15-6 21 0l35 35c5 6 5 15 0 21l-90 89h219c10-19 25-35 44-45v-198l-84 83c-5 6-15 6-20 0l-35-35c-6-5-6-15 0-20l175-176c6-6 15-6 21 0l176 176c6 5 6 15 0 20l-35 35c-6 6-15 6-21 0l-89-89v201c21 10 39 27 49 48h224l-89-89c-6-6-6-16 0-21l35-35c6-6 15-6 21 0l175 175c6 6 6 15 0 21z" />
<glyph glyph-name="drag1" horiz-adv-x="1000" unicode="&#xef0b;" d="M930 370l-141 141c-11 10-19 7-19-8v-145h-162c-3 54-46 97-101 101v160h146c14 0 18 9 7 19l-141 142c-10 10-27 10-38 0l-141-142c-11-10-7-19 8-19h145v-160c-54-4-98-47-101-101h-162v145c0 15-8 18-19 8l-141-141c-11-11-11-28 0-38l141-142c11-10 19-7 19 8v145h162c3-54 46-97 101-101v-161h-146c-14 0-18-9-7-19l141-142c10-10 27-10 38 0l141 142c11 10 7 19-8 19h-145v161c55 4 98 47 101 101h162v-145c0-15 8-18 19-8l141 141c11 11 11 28 0 39z" />
<glyph glyph-name="drag2" horiz-adv-x="1000" unicode="&#xef0c;" d="M382 581l105 105c5 5 13 5 18 0l105-105c5-5 14-5 18 0l31 31c5 5 5 13 0 18l-154 154c-5 5-13 5-18 0l-154-155c-5-5-5-13 0-18l31-30c5-5 13-5 18 0z m552-224l-155 154c-5 5-13 5-18 0l-31-31c-5-5-5-13 0-18l106-105c5-5 5-13 0-18l-105-106c-5-5-5-13 0-18l31-30c5-5 13-5 18 0l154 154c5 5 5 13 0 18z m-770-14c-5 5-5 13 0 18l105 106c5 5 5 13 0 18l-31 31c-5 5-13 5-18 0l-154-155c-5-5-5-13 0-18l155-154c5-5 13-5 18 0l31 31c5 5 5 13 0 18l-106 105z m472-223c-5 5-13 5-18 0l-105-106c-5-5-13-5-18 0l-105 105c-5 5-14 5-19 0l-30-31c-5-5-5-13 0-18l154-154c5-5 14-5 18 0l154 155c5 5 5 13 0 18l-31 31z" />
<glyph glyph-name="drag3" horiz-adv-x="1000" unicode="&#xef0d;" d="M761 521l-12-13 155-151h-307c-2 24-12 45-28 62-17 16-39 26-62 27v308l151-155 13 12-171 177-171-177 13-12 151 155v-308c-47-4-84-42-87-88h-310l155 150-12 13-176-171 176-171 12 13-155 151h310c3-47 40-84 87-88v-309l-151 155-13-12 169-175 2-2 171 177-13 12-151-155v308c24 2 45 11 62 28 16 16 26 38 28 61h307l-155-151 12-13 177 171-177 171z m-260-251c-44 0-80 36-80 80 0 20 8 40 22 55 14 14 32 23 52 25h12c42-3 74-38 74-80 0-44-35-80-80-80z" />
<glyph glyph-name="earth" horiz-adv-x="1000" unicode="&#xef0e;" d="M492 575l1-2 2 0h2c4 11-6 11-14 13l-4-1 1-3 12-7z m98-15l2 0c4 2 9-3 11 4-6 0-9 1-14 0 0 0 0-4 1-4z m-37 4l6 0c-1 5-13 8-13 1-2-1 4-1 7-1z m-121 97c-4-5-4 3-7 1l-2-1c-5-7-19-8-17-20 12 1 19 10 26 20z m42-63c-9 4-9-5-10-12l3-3c7 1 11 10 7 15z m-37 68c0-1-1-3-2-5 1 1 4 0 4-2l-11-8c2 0 4 0 2-2l-7-3h7c-1-3-4-3-6-4-3-1-5-2-4-6 2 1 4 2 7 3 7 2 15 1 22 5l-4 2c4 1 7 3 5 8l-3-2c3 7-3 16 3 20l2 3c-2 0-5 0-7 0l5 3c-8 0-12-8-18-12 1-3 5 2 5 0z m-4-7c1 1 1 1 2 2-1 0-1-1-2-2z m397-200l-4 1-1-2-1-6 1-2 0 0 2 1 2 1 1-2 2-5 3-6 1 0-1 9h0l1 0 1 0 0 2-1 5-4 11-1 1 0-3 0-3 0-2h-1z m-2-61l3-1 3 1 1 3 1 4-1 1c-3-1-7-2-10-3l-3-3 0-5v-6l-1-6-2-6 0-5 1-5 1-5-1-6 1-4 2 0 1 5-1 11 1 3 2-3 0-5 2-2 3 3 0 6-3 7 0 2 1 2 3 6-1 3-2-2-2-3-2 2-1 5 2 5 2 1z m5-56l-2 0-6-3-4 1-2-2 0-4 1-2 6 2 7 6 0 2z m-12 5l-8 0-3 0-3-3 3-4 6-1 2 1 3 5c0 0 0 1 0 2z m20 72l-1 3 0-1 0-4v-5l0-8 0-5 0-4 1-1 0 1 0 2 0 2 0 4 1 2 1 2 0 3-1 5-1 4z m-6-82l-4-5-2-3-1-5 1-3 2 1 4 7 8 10h-4l-4-2z m20 54l-1-1 0-4-1-6-1-2 0 2-1 5 1 7h0l-1 4-1 2-1 0-1-1-2 0-1 0 0-3 0-2 1-5 0 0 0-1 1 0 0 0 0-1 0-1 1-1 2 0 0 0 0-2-1-1 0 0-1-1v-3l0-1v-1l0-3v-2l1 0 0 1 0 3 1 1 0 1 0 0 1-1 0-1 0-3v-1l1 0 1-2 0 0 0 0v-1l0 0h0v-1l0-1-1-7 0-4 0-3 0-1 0-1v0l0-1-1-1 0 0-1-2 0-4 0-2 0 0 1 2 0 1 0 0v-1l-1-4 0-2 0 0 0 0c3 17 5 33 6 50l-1 7z m-46 109l2-7 0-6 2-3 1-3 1 1 0 6 0 2 3 0 3-2 1 3-2 5-3 0-4 3-2 7-2 9-3 6-3 4-2 1 0-2 1-3 1-3 1-6 1-6 4-6z m11-19l-1-1v-1l1-5 1-1 1 1 1 0 0 1 0 2-1 1-1 3-1 0z m5 0l2-10 1-2 1 1-1 3 0 2-1 3 0 2 0 1 0 2-2 2-1 1h-1l0-2 1-2 1-1z m-17-112l4 3 1 7v5l1 3 1 4 1 3 1 6 2 4 1 4-1 3-3 6-2 3 1 7 2 5-1 5-8 7-3-3-1-10 0-1c2-20 2-40 2-60l2-1z m-75-109l-3 6-6 1-4-3-2-4-15-20-17-9-3-3-2-3-1-4 1-22-8-20 0-4-1-7 1-3 6-7 9-2 10 7 5 16 21 43 6 27 1 3 1 3 1 0 0 5 0-1 0 1z m-184 442h5-5z m-49 86c-242 0-437-196-437-438s195-438 437-438 438 196 438 438-196 438-438 438z m0-798c-76 0-147 24-205 65 0 0 0 0 0 0 0 0 0 0 0 0 0 0 1 0 1 0 0 0-1 1-1 1-1 1-2 1-3 2 0 0-1 0-2 1 0 0-1 0-2 1-19 14-37 29-53 47 0 0 0 0-1 1 0 1-1 2-2 2l0 0-6 7c1 0 1 1 1 2-1 1-2 3-3 5 1 0 5 0 6 4 2 10-3 17-7 25 2 0 4-1 6-3 3 5 4 10 5 16 0 2 1 5 1 8-1 15-13 29-10 43 6 20 17 39 21 60 0 2 2 4 3 6 2 4 4 8 4 13 1 2 2 7 1 10 0 3-1 7-1 8-1 1-2 3-2 4-1 1-6 5-11 8-5 4-10 6-10 6s0 1 0 1 0 0 0 0c0 1-1 1-1 2 0 0 0 0-1 0h0c0 0-1 0-1 1 0 0-1 0-1 0 0 0-1 0-1 1-1 0-2 0-2 0-1 1-1 1-1 1 0 0-1 0-1 0h-6c-3 0-5 0-6 0 0-1 0-1 0-2 0-1-1-2-1-2 0 0-1 0-1 0 0 0-1 0-1 0 2 9-5 19-14 16v-5c-7 1 2 8-4 10-7 2-3-7-9-9 7 16 6 29-3 43-6 12-20 17-20 33-1 2-2 4-2 4-1 0-2 0-3-1-1-1-2-2-2-2 0 0 0 1 0 1 0 1 0 3 0 6 0 0 0 1 0 1 37 160 180 279 351 279 19 0 37-2 55-5-3 0-6-1-9-3-1 0-3-1-4-1-1-1-2-1-3-1 3-1 6 1 8 2-1 0-1 0-2 0l1 0h1l1 0 0 0c2 1 4 1 7 2 1 0 3-1 5-1-2 0-3-1-4-2-3-1-5-2-8-4h5l-3-3h1c-5-2-8-2-13-2l10 3c-15 0-29-3-44-7-3-1-5-2-7-3-3-1-5-2-8-4-6-3-16-8-13-11 4-4 7-5 11-6 1-1 3-1 5-3 1-2 3-3 5-5 10-2 19 10 10 19 3 1 5 4 7 6 2 3 5 5 8 6-5-2-5-9-3-11 3-2 7-1 11 1 4 2 9 4 13 3-1-2-4-2-6-3-3-1-5-2-8-2-5 0-7-7-3-11-2 2-5 2-7 2-2-17-22-19-34-12 2 0 5-2 7 2 0 3-2 3-5 1v6c-7 1-7-7-7-12l-7 1c-14-10-27-15-42-20-3-1-6-3-9-4 8-3 8-18 0-17-22 7-48 12-52-15 0-4-5-9-1-12 13-10 32-10 48-4 5 2 8 11 14 12 3 1 6 3 8 4 2 2 4 4 6 7 3 2 6 4 9 4 4 1 8 1 12 2 2 0 5 0 8 1 11-11 30-24 37-39 1 5 6 12 13 5-7 12-32 23-34 40 17-12 34-20 46-41 2-1 7-3 11-1 5 3 3 6 2 8-2 3-4 5-1 9 2 3 3 2 5 0 11-24 43-12 55-23 17-13-10-30-31-27-12 3-22 5-31 9-3 0-5 1-7 1-2 1-5 0-6 0-2-1-3-3-4-4s-1-4-1-5-1-2-2-3c-1-1-4 0-7 1s-6 3-7 3c0 0-4 2-7 4-2 1-4 2-6 2-12 1-26 9-19 23-11 4-23 5-35 4-3-1-6-1-9-2-16-5-31-5-48-5-12 0-21-14-26-25-2-2-3-4-5-6-5-6-13-12-20-15-4-2-7-4-9-6-22-16-29-44-36-71 0-1-1-3-1-3-1-1-1-4-1-5 1-2 0-5 0-7 0-2 0-4-1-5 0-1 1-2 1-3s2-1 2-1c3-2 5-5 6-7 2-3 3-6 5-9 13-44 62-41 97-27l9 2c2 0 5 1 7 2 6-1 12-2 12-3 0-1 0-2 1-2 0-1 1-1 1-2 0 0 1-1 1-1 0-1 1-1 1-2 0 0 1-1 2-2 1-1 5-1 10-1 7 0 10-3 13-8 7-16-5-33 10-44 1-1 2-3 4-5 2-3 4-6 6-9 4-7 8-16 8-22s3-10 4-12c1-2 1-6 0-9 0-2-1-4-1-6-8-11-13-25-12-37 7-20 21-39 25-60v-3c1-1 2-3 2-4 1-1 2-2 2-2 1 0 1-1 1-1 1 0 1-1 1-1 0 0 1-2 3-4 1-2 3-6 4-7 2-2 3-6 4-8 1-2 1-5 0-5s0-2 0-2c-1-1 0-2 0-3 0-1 1-3 3-4 1-2 3-3 3-4 1 0 4-1 6-1 3 0 5 0 6 0 1 0 3 1 3 2 1 0 2 2 3 2 0 1 9 2 18 2l28 14c4 5 9 10 10 12 0 2 4 5 6 7 3 2 6 6 7 10 0 3 2 6 3 8 4 5 12 5 12 10 4 18 11 34 23 50 2 3 3 5 5 8 9 16 14 34 13 53-1 2-1 4-2 6-10 36 20 59 54 74 1 2 2 4 3 6 3 8 6 15 8 23 1 2 2 5 3 7 5 5 3 12 3 17-10-5-21-3-30-5-3 0-5-1-7-1-2 1-4 1-4 2-1 0-6 3-11 5-5 2-6 5-9 7-2 1-5 8-7 10-2 1-5 6-6 7-6 9-12 16-17 26-7 11-15 21-21 33-2 2-3 4-5 7-2 2-4 4-5 6-5 4-6 6-9 9-2 1-1 3 1 3 10 6 7-10 15-9 2-2 4-4 6-6 2-2 4-4 6-6 2-3 4-5 7-8 9-12 17-24 26-35 1-2 3-4 4-6s3-5 4-8c6-31 40-15 59-9 10 5 22 11 23 23 6 23-13 37-29 51-1-14-17-14-22-4-1 2-2 4-3 6l-2-6c-3 9-10 18-15 24 8 0 15-5 24-9l9-4c17-7 34-14 55-12 5 1 7-3 9-8 0-2 1-5 1-8 1-3 1-6 1-8 2 2 3 5 5 8 1 3 3 6 4 9 6 17 5 37 0 55 42-59 67-131 67-209 0-199-161-360-360-360z m51 714c-1-1-2-1-3-1 1 0 2 1 3 1z m-4-2h1-1z" />
<glyph glyph-name="edit" horiz-adv-x="1000" unicode="&#xef10;" d="M934 468c-1-1-2-2-3-2-44-45-88-89-132-134-4-4-6-11-6-17-1-81-1-161-1-241v-8c0-4-6-7-14-7h-554c-8 0-15 6-15 14v555c0 8 4 14 8 14h8c80 0 159 0 239 1 7 0 16 3 21 8 43 42 84 84 126 126 2 2 3 3 5 5 2 3-2 5-10 5h-529c-8 0-14-6-14-14v-846c0-8 6-14 14-14h846c8 0 15 6 15 14v529c0 8-2 14-4 12z m-597-105v-162c0-8 7-14 15-14h161c8 0 19 4 24 10 129 129 259 259 388 388 6 6 6 15 0 20l-169 170c-6 6-15 6-21 0-129-129-259-259-388-388-5-5-10-16-10-24z" />
<glyph glyph-name="envelope" horiz-adv-x="1000" unicode="&#xef14;" d="M493 268c-118 58-337 166-408 200-12 6-22-1-22-14v-396c0-14 11-25 25-25h824c14 0 25 11 25 24v396c0 14-10 20-22 14-70-34-287-141-403-199-7-3-12-3-19 0z m-314 230c105-52 210-103 315-154 4-2 11-3 15-1 140 69 281 139 422 208 5 2 7 5 7 11-1 21 0 57 0 81 0 14-11 25-25 25h-826c-13 0-24-11-24-25 0-24 0-61 0-82 0-3 4-8 7-10 36-18 72-35 109-53z" />
<glyph glyph-name="error" horiz-adv-x="1000" unicode="&#xef16;" d="M800 170l-120-120-180 180-180-180-120 120 179 180-179 180 120 120 180-180 180 180 120-120-180-180 180-180z" />
<glyph glyph-name="exchange" horiz-adv-x="1000" unicode="&#xef18;" d="M549 317h-289l107 107c8 8 8 20 0 27l-45 45c-7 8-19 8-27 0l-227-227c-7-7-7-19 0-27l227-227c8-7 20-7 27 0l45 45c8 8 8 20 0 27l-115 116h297c11 0 19 8 19 19v76c0 10-8 19-19 19z m383 140l-227 227c-8 8-20 8-27 0l-45-45c-8-7-8-19 0-27l107-107h-289c-11 0-19-9-19-19v-76c0-11 8-19 19-19h297l-115-116c-8-7-8-19 0-27l45-45c7-7 19-7 27 0l227 227c7 8 7 20 0 27z" />
<glyph glyph-name="exclamation-square" horiz-adv-x="1000" unicode="&#xef1a;" d="M873 787h-745c-36 0-65-28-65-64v-746c0-36 29-64 65-64h745c36 0 65 28 65 64v746c0 36-29 64-65 64z m-373-161c19 0 39-1 59-4l-8-370c-17-3-34-4-51-4-17 0-34 1-51 4l-8 370c20 3 39 4 59 4z m56-548c-19-3-38-4-55-4-19 0-38 1-56 4-3 19-5 38-5 56s2 36 5 55c18 3 36 5 55 5 18 0 37-2 56-5 3-19 4-37 4-55 0-18-1-37-4-56z" />
<glyph glyph-name="exclamation-tringle" horiz-adv-x="1000" unicode="&#xef1b;" d="M937 4c-2 12-6 23-11 33-11 20-22 40-33 59-113 204-226 407-339 610-6 12-14 23-23 33-18 17-41 18-60 1-8-8-16-18-21-28-125-225-250-450-375-675-4-6-7-13-9-19-11-33 4-59 37-67 8-3 18-4 27-4h739c7 0 14 1 21 2 31 3 51 26 47 55z m-438 552c18 0 35-1 53-4l-7-327c-15-3-30-4-45-4-15 0-30 1-45 4l-7 327c18 2 34 4 51 4z m50-485c-17-2-33-4-49-4-16 0-33 2-49 4-3 17-4 33-4 49 0 16 1 33 4 50 16 2 32 4 48 4 17 0 33-2 50-4 3-17 4-33 4-49 0-17-1-33-4-50z" />
<glyph glyph-name="exclamation" horiz-adv-x="1000" unicode="&#xef1c;" d="M500 239c18 0 36 2 56 5l8 401c-21 4-43 5-64 5-21 0-42-1-63-5l8-401c18-4 37-5 55-5z m61-63c-21 3-41 5-61 5-20 0-40-2-60-5-3-21-5-41-5-61 0-20 2-40 5-60 20-3 41-5 60-5 20 0 40 2 61 5 3 20 4 41 4 61 0 19-1 39-4 60z" />
<glyph glyph-name="exit" horiz-adv-x="1000" unicode="&#xef1d;" d="M903 333c9 9 9 25 0 35l-286 294c-10 9-25 9-34 0l-57-59c-9-9-9-25 0-35l135-139h-364c-13 0-24-11-24-25v-98c0-14 11-25 24-25h374l-145-149c-9-10-9-26 0-35l57-59c9-9 24-9 34 0l286 295z m-485 333h-206v-632h206v-122h-267c-34 0-61 28-61 61v754c0 33 27 61 61 61h267v-122z" />
<glyph glyph-name="external-link" horiz-adv-x="1000" unicode="&#xef1f;" d="M808 351h-67c-11 0-21-9-21-21v-280c0-12-9-21-21-21h-503c-12 0-21 9-21 21v505c0 12 9 21 21 21h280c12 0 21 9 21 21v65c0 12-9 21-21 21h-392c-12 0-21-9-21-21v-726c0-11 9-21 21-21h724c12 0 21 10 21 21v394c0 12-9 21-21 21z m16 433h-249c-8 0-15-7-15-15v-83c0-9 7-15 15-15h127c8 0 10-5 5-11l-212-211c-6-6-6-16 0-21l86-86c6-6 15-6 21 0l212 212c6 6 10 4 10-5v-128c0-8 7-15 15-15h84c8 0 15 7 15 15v363c0 0-114 0-114 0z" />
<glyph glyph-name="external" horiz-adv-x="1000" unicode="&#xef20;" d="M873 787h-746c-36 0-64-29-64-65v-744c0-36 28-65 64-65h746c36 0 65 29 65 65v744c0 36-29 65-65 65z m-66-495h-83c-8 0-15 7-15 15v127c0 8-4 10-10 4l-210-210c-6-6-15-6-21 0l-85 85c-6 6-6 15 0 21l209 210c6 5 4 10-4 10h-126c-8 0-15 7-15 15v82c0 9 7 15 15 15h343c9 0 17-7 17-16v-343c0-8-7-15-15-15z" />
<glyph glyph-name="eye-blocked" horiz-adv-x="1000" unicode="&#xef22;" d="M937 319c-24 38-51 73-86 104-33 29-69 53-107 72l-63-76 1 0c52-24 96-56 131-98 3-4 5-7 1-12-58-69-135-110-229-129 54 32 85 76 85 134 0 26-6 49-18 70l-248-298c57-10 117-10 180 0 156 23 274 97 352 223 2 3 2 7 1 10z m-218 346l-105-127c-38 8-76 12-117 13-16-1-34-2-52-3-10-1-20-3-29-4-156-25-275-99-352-224-2-3-2-8 0-10 28-47 62-88 107-122 32-25 66-44 101-61l-42-50 51-43 489 589-51 42z m-279-252c21-1 39-16 41-35l-33-38c-2-1-5-1-7-1-24 0-41 16-41 36-1 21 18 38 40 38z m-229-131c-8 8-15 17-24 25-5 6-4 9 0 15 44 51 100 88 168 111 19 7 39 12 59 16-53-32-84-76-83-135 0-32 9-60 27-84l-23-27c-46 19-87 44-124 79z" />
<glyph glyph-name="eye" horiz-adv-x="1000" unicode="&#xef24;" d="M497 586c138-2 256-42 354-128 35-30 62-65 86-103 1-3 1-8-1-10-78-126-196-201-352-224-154-23-293 12-413 103-45 33-80 75-107 121-2 3-2 8 0 10 77 126 196 199 351 225 10 1 20 3 30 3 18 2 36 2 52 3z m88-370c94 18 171 60 229 128 4 6 2 9-1 13-35 42-79 74-131 97-30 14-63 24-100 31 57-33 88-77 88-135-1-59-31-102-85-134z m-170 0c-54 32-84 75-85 134 0 58 31 102 84 135-20-5-40-10-59-16-68-23-124-60-168-112-4-5-5-9 0-14 9-8 16-18 24-26 56-53 125-86 204-101z m26 158c22 1 40 17 40 37 0 20-19 37-41 37-22 0-41-17-40-37 0-21 18-37 41-37z" />
<glyph glyph-name="eye-dropper" horiz-adv-x="1000" unicode="&#xef23;" d="M529 613c-19 19-37 37-55 55 18 18 36 36 55 55 2 2 5 2 6 0 27-28 55-56 84-87 2-1 5-1 6 1 4 5 7 9 11 13 33 34 67 68 101 101 34 34 75 46 120 30 46-16 73-50 80-98 5-40-12-72-39-100-36-35-71-72-106-108-1-1-1-1-2-2-1-2 0-4 1-6 29-28 58-56 86-84 2-1 2-4 0-6-18-19-36-36-53-53-2-2-4-2-6 0-20 20-40 40-61 61-2 2-5 2-7 0-2-2-4-4-6-6-151-150-301-301-452-452-10-10-21-15-36-15-53 1-105 1-158 1-25 0-36 10-36 35 0 55 1 109 0 163 0 11 4 20 11 28 61 62 122 124 183 187l263 268c3 4 6 8 10 12 2 2 2 5 0 7z m39-49c-119-122-238-244-358-367-2-2-2-5 0-7 41-44 82-88 122-131 2-2 5-2 6 0l368 367c2 2 2 5 0 7l-131 131c-2 2-5 2-7 0z" />
<glyph glyph-name="filter" horiz-adv-x="1000" unicode="&#xef29;" d="M395 374c9-10 14-23 14-36v-397c0-23 29-36 47-19l112 127c15 18 23 26 23 44v245c0 13 5 26 14 36l322 344c24 26 5 68-30 68h-793c-36 0-55-42-31-68l322-344z" />
<glyph glyph-name="folder-open" horiz-adv-x="1000" unicode="&#xef35;" d="M713 469h180v71c0 30-24 55-55 55h-205l-18 33c-14 27-42 45-73 45h-380c-31 0-56-25-56-56v-148h607z m0-37h-650l43-352c0-29 25-53 56-53h676c30 0 55 24 55 53l45 352h-225z" />
<glyph glyph-name="folder" horiz-adv-x="1000" unicode="&#xef36;" d="M886 604h-328l-16 34c-14 29-40 47-69 47h-358c-29 0-52-26-52-58v-555c0-31 23-57 52-57h771c28 0 52 26 52 57v475c0 31-24 57-52 57z" />
<glyph glyph-name="garbage" horiz-adv-x="1000" unicode="&#xef38;" d="M809 728h-61c-8 0-15 7-15 16v27c0 44-36 79-79 79h-307c-44 0-79-35-79-79v-27c0-9-7-16-16-16h-61c-43 0-78-35-78-79v-59c0-8 7-15 15-15h744c9 0 16 7 16 15v59c0 44-35 79-79 79z m-139 16c0-9-7-16-16-16h-307c-9 0-16 7-16 16v27c0 9 7 16 16 16h307c9 0 16-7 16-16v-27z m187-218h-713c-17 0-30-14-28-31l62-614c2-17 17-31 35-31h574c18 0 33 14 35 31l63 614c2 17-11 31-28 31z m-364-469c0-9-7-16-16-16l-78 0c-9 0-20 6-26 12l-47 56c-5 7-7 19-4 27l6 15c3 8-1 17-9 21l-17 7c-8 3-8 7 1 9l63 11c9 2 20-2 25-9 10-15 27-38 38-53 5-7 2-10-6-7l-16 7c-8 3-15 3-17 1-1-3 3-10 9-17l4-5c5-6 17-12 25-12l49 0c9 0 16-7 16-15l0-32z m11 207l16 9c7 4 12 9 11 12-1 2-9 4-18 4h-6c-9 0-20-5-26-12l-31-38c-6-6-16-7-22-2l-24 21c-7 5-8 15-2 22l50 60c6 7 17 12 26 12h73c8 0 19-6 23-14l8-14c4-8 13-11 21-7 5 3 11 6 16 9 8 4 11 1 7-6l-32-56c-4-8-15-14-23-13-18 1-47 3-65 4-9 1-9 5-2 9z m180-152l-39-62c-5-7-15-13-24-12l-16 1c-9 0-16-6-17-15 0-6-1-12-1-18-1-9-5-10-9-2l-31 57c-4 7-3 19 2 26 10 15 27 38 38 52 5 7 9 6 8-3l-1-17c0-9 1-16 4-16 3-1 9 5 14 13l3 4c5 8 6 20 3 29l-15 46c-2 9 2 17 11 20l30 10c8 2 17-2 19-10l24-75c3-8 2-21-3-28z" />
<glyph glyph-name="gear-alt" horiz-adv-x="1000" unicode="&#xef39;" d="M799 474c-5 11 4 30 24 51l48 48c7 7 10 15 8 17l-5 5-129 129-5 5s-10-1-17-8l-49-48c-22-22-37-26-44-26-5 0-9 2-12 6-5 4-13 17-13 49v0c0 1 0 9 0 19v49c0 10-8 18-18 18h-174c-10 0-18-8-18-18v-69c0-12-2-54-26-54-6 0-21 4-43 26l-51 51-5 5s-7 2-10 0l-133-134-5-5s-3-7 0-10l5-5 50-51c20-20 29-38 25-50-5-12-25-19-53-19h-69c-10 0-18-8-18-18v-174c0-10 8-18 18-18h69c28 0 48-7 52-19 5-11-4-30-24-50l-51-51-5-5s-2-7 0-10l134-134 5-5s7-2 10 0l5 5 51 51c22 22 37 26 43 26 24 0 26-42 26-54v-69c0-10 8-18 18-18h174c10 0 18 8 18 18v49c0 10 0 18 0 19v1c0 31 8 44 13 49 3 3 7 5 13 5 6 0 21-3 43-26l51-51 5-5s8-2 10 0l134 134 5 5s2 7 0 10l-56 56c-20 20-29 39-24 50s24 19 53 19h68c10 0 18 8 18 18v174c0 10-8 18-18 18h-68c-29 0-49 7-53 19z m-101-124c0-109-89-198-198-198s-198 89-198 198 89 198 198 198 198-89 198-198z" />
<glyph glyph-name="gear" horiz-adv-x="1000" unicode="&#xef3a;" d="M937 442c-23-14-45-26-67-39-11-6-22-12-32-19-3-2-6-6-6-10-1-16 0-31-1-46 0-7 2-10 7-13 30-16 59-33 88-50 3-2 6-4 12-7-10-26-18-52-28-77-1-3-6-6-9-6-33 3-66 6-98 10-11 1-19 0-25-10-6-12-15-22-23-32-4-4-5-8-2-14 15-34 30-67 45-103-23-16-47-32-70-48-2-1-8 1-10 2-26 23-53 45-79 68-5 4-8 5-15 3-14-5-28-10-43-13-7-2-10-5-11-12-8-36-16-71-24-107h-92c-8 36-17 71-24 106-2 8-5 11-12 13-14 3-28 8-42 13-7 2-10 2-15-3-26-22-53-45-79-67-3-2-8-4-10-2-24 15-47 31-71 47 16 35 30 68 45 100 4 8 3 13-2 19-9 11-18 22-25 33-4 6-8 8-15 7-33-3-67-6-100-10-8 0-13 0-16 9-8 25-17 49-25 74 4 3 7 5 11 7 29 17 58 33 87 50 6 3 8 6 8 13-1 15-1 30 0 44 0 7-2 10-8 14-29 16-59 33-88 50-3 2-6 3-11 6 10 26 19 53 29 79 0 2 6 4 9 4 33-3 65-6 98-9 11-2 18 0 24 10 6 11 15 21 23 31 4 5 5 9 2 15-15 33-30 67-46 102 24 16 47 32 71 48 2 1 8 0 10-2 27-23 53-45 79-68 5-4 9-5 15-3 14 6 29 10 43 14 6 2 9 4 11 11 8 35 16 70 24 107h92c8-36 16-71 24-106 1-7 4-10 11-12 15-4 29-8 43-14 6-2 10-1 15 3l78 68c4 3 8 5 13 1 22-15 45-31 68-47-11-25-21-48-32-71-4-11-9-22-14-32-3-5-1-9 2-13 9-12 19-24 27-37 4-5 8-7 14-6 34 3 67 6 100 10 9 1 14 0 17-9 8-25 17-49 25-74z m-291-96c2 77-62 144-139 146-84 2-150-58-152-139-3-76 61-142 138-144 83-3 150 58 153 137z" />
<glyph glyph-name="gears" horiz-adv-x="1000" unicode="&#xef3b;" d="M578 201c-4 2-5 5-5 9 0 10 0 20 0 31 0 2 2 5 4 7 7 4 14 8 21 12 15 9 29 17 45 26-6 17-11 33-17 50-2 6-5 6-11 6-22-3-44-5-66-7-4 0-7 1-9 4-6 9-12 17-19 25-2 3-3 5-1 8 4 7 7 14 10 22 7 15 14 31 21 47-15 11-31 21-45 32-4 2-6 1-9-1-17-15-35-30-52-46-3-2-6-3-9-1-10 3-19 6-29 9-5 1-7 3-8 8-5 23-10 47-16 71h-60c-6-25-11-48-17-72 0-4-3-6-7-7-9-3-19-6-28-9-5-2-7-1-10 2-18 15-35 30-53 45-1 1-5 2-7 1-15-10-31-21-46-32 10-23 20-46 30-68 2-4 2-7-1-10-6-7-11-13-15-20-4-7-9-8-16-8-22 3-44 5-66 7-2 0-5-1-6-3-6-17-12-35-18-53 3-2 5-3 7-4 19-11 39-22 58-33 4-2 5-5 5-9 0-10 0-20 0-30 0-4-1-7-5-9-19-11-39-22-58-33-2-1-4-3-7-5 6-16 11-33 17-49 2-6 5-6 10-6l67 7c4 0 7-1 10-5 5-7 10-15 16-22 4-4 4-8 2-13-10-21-20-43-30-66 16-11 31-22 47-32 1-1 5 0 7 1 17 15 35 30 52 45 3 3 6 4 10 2 9-3 18-6 28-9 4-1 7-3 8-8 5-24 10-47 16-71h60c6 24 11 48 17 71 1 5 2 7 7 8 10 3 19 6 29 9 4 2 6 1 10-2 17-15 34-30 52-45 1-1 5-2 6-1 16 10 32 21 47 32-10 23-20 46-30 68-2 4-1 7 1 10 6 7 12 13 16 21 4 7 9 7 16 7 22-3 43-5 65-7 2 0 6 2 6 4 7 17 13 34 19 52-4 2-6 3-8 4-20 11-39 22-58 33z m-230-71c-51 2-93 46-92 97 2 54 46 94 102 92 51-1 93-45 92-97-2-53-47-93-102-92z m349 304c3-15 7-30 10-46h40c3 16 7 31 10 47 1 3 2 4 5 5 6 1 13 3 19 6 3 1 4 0 6-2 12-10 23-19 34-29 1-1 4-1 5-1 10 7 20 14 30 21-7 15-13 30-20 44-1 3-1 5 1 7 4 4 8 8 10 13 3 5 6 5 11 5 14-2 28-3 42-4 2 0 4 1 4 2 4 11 8 23 12 34-2 1-3 2-5 3-12 7-25 14-38 22-2 1-3 2-3 5 1 7 0 14 1 20 0 2 1 4 2 5 5 3 9 5 14 8 10 5 19 11 29 17-3 11-7 21-11 32-1 4-3 4-7 4-14-2-29-3-43-4-3-1-5 0-6 2-4 6-8 11-12 16-2 2-2 4-1 6 2 4 4 9 6 14 5 10 9 20 14 31-10 7-20 14-29 20-3 2-4 1-6 0l-34-30c-2-2-4-2-6-1-6 2-12 4-19 6-3 1-4 2-5 5-3 16-7 31-10 47h-40c-3-16-7-32-10-47-1-3-2-4-5-5-6-1-12-3-19-6-2-1-4 0-6 2-11 9-23 19-34 29-1 1-4 1-5 1-10-7-20-14-30-21 7-15 13-30 20-44 1-3 1-5-1-7-4-4-8-8-10-13-3-5-6-6-11-5-14 2-28 3-42 4-1 0-4-1-4-2-4-11-8-22-12-34 2-1 3-2 4-3 13-7 26-14 39-21 2-2 3-3 3-6-1-7-1-13 0-20 0-2-1-4-3-5-13-7-26-15-38-22-2-1-3-2-5-3 4-11 8-22 11-32 1-4 3-4 7-4 14 2 29 3 43 4 3 1 5 0 7-3 3-5 6-10 10-14 3-3 3-5 1-9-6-14-12-28-19-43 10-7 20-14 30-21 1 0 4 0 5 1 11 10 23 20 34 29 2 2 4 3 6 2 6-3 13-5 19-6 3-1 4-2 5-6z m-33 143c1 35 30 61 66 60 34 0 61-29 60-63-1-34-30-61-66-60-33 1-61 30-60 63z m270-389c-9 5-17 10-26 15-2 1-3 2-2 4 0 5-1 10 0 14 0 1 1 3 1 3 4 3 7 4 10 6 7 4 13 8 20 12-2 8-5 15-7 22-1 3-3 3-5 3-10-1-20-2-30-3-2 0-3 0-5 2-2 4-5 8-8 11-1 1-1 3 0 4 1 3 3 7 4 10 3 7 6 14 10 22-7 4-14 9-21 14-2 1-3 0-4-1l-24-20c-1-2-2-2-4-1-4 2-9 3-13 4-2 1-3 2-3 4-3 10-5 21-8 32h-27c-3-11-5-22-7-33-1-2-2-2-4-3-4-1-8-2-13-4-2-1-3 0-4 1-8 7-16 14-24 20-1 1-2 1-3 1-7-5-14-10-21-14 5-11 9-21 14-31 0-2 0-4-1-5-3-3-5-6-7-9-2-4-4-4-7-4-10 2-20 2-30 3-1 0-2 0-3-1-3-8-5-16-8-24 1-1 2-1 3-2 9-5 18-10 27-15 1-1 2-2 2-4 0-5 0-9 0-13 0-2-1-4-2-4-9-5-18-10-27-16-1 0-2-1-3-2 2-7 5-15 8-22 0-3 2-3 4-3 10 1 21 2 31 3 2 1 3 0 4-2 2-3 5-7 7-10 2-2 2-3 1-6-4-9-9-19-13-30 7-5 14-10 21-14 1-1 2 0 3 0 8 7 16 14 24 21 1 1 2 1 4 1 4-2 9-3 13-5 2 0 3-1 4-3 2-11 4-22 7-33h28c2 11 5 22 7 33 0 2 1 3 3 3 5 2 9 3 13 4 2 1 3 1 5 0 8-7 16-14 23-21 1-1 3-1 3-1 8 5 15 10 22 15-5 11-10 21-14 31-1 2-1 3 0 5 3 3 6 6 8 9 1 3 4 3 7 3 10-1 20-2 29-3 1 0 3 1 3 2 3 8 6 16 9 23-2 1-3 2-4 2z m-130-17c-24 1-43 21-42 44 0 24 20 43 46 42 23-1 42-21 42-44-1-24-21-43-46-42z" />
<glyph glyph-name="gift" horiz-adv-x="1000" unicode="&#xef3c;" d="M719 608c75 0 109 37 109 82 0 45-34 82-109 82-71 0-127-32-164-68-17 9-36 15-57 15-20 0-38-5-54-14-37 36-93 67-163 67-75 0-109-37-109-82 0-45 34-82 109-82h182v-681h74v681h182z m0 109c25 0 54-4 54-27 0-22-29-27-54-27h-125l-1 2c28 27 70 52 126 52z m-317-54h-121c-25 0-55 5-55 27 0 23 30 27 55 27 55 0 96-24 124-50l-3-4z m-339-134v-109h382v164h-328c-30 0-54-25-54-55z m54-547c0-30 25-55 55-55h273v438h-328v-383z m766 602h-326v-165h381v110c0 30-25 55-55 55z m-326-657h271c30 0 55 25 55 55v383h-326v-438z" />
<glyph glyph-name="graffiti" horiz-adv-x="1000" unicode="&#xef3f;" d="M578 669h-21v41c-1 0-1 0-2 0-9 0-15 11-15 24 0 13 6 24 15 24 1 0 1 0 2 0v20h-120v-109h-20v-27h161v27z m84-104c4 5 7 11 7 18 0 14-11 25-25 25h-306c-14 0-26-11-26-25 0-7 3-13 8-18-14-11-23-28-23-47v-503h388v503c0 19-9 36-23 47z m-365-591c0-34 27-62 61-62h266c33 0 61 28 61 62v4h-388v-4z m337 751h57c7 0 11 2 12 9 0 6-5 9-12 9-2 0-4 0-7 0h-52c-3 0-5 0-7 1 20 9 39 17 59 26 6 2 10 6 7 12-3 7-9 6-16 4-34-14-68-29-102-43-3-2-7-6-7-9 1-3 4-7 8-9 10-5 21-9 31-13l70-30c7-2 13-3 16 4 3 6-1 10-7 12-3 1-5 3-8 4l-53 22 1 1h10z" />
<glyph glyph-name="glass" horiz-adv-x="1000" unicode="&#xef3d;" d="M605-45l-18 4c-9 2-17 3-23 4-21 5-21 5-25 15-2 3-3 7-6 12-10 21-8 48-6 106 1 24 2 53 3 88v4c3 100 3 100 48 119 7 2 15 6 24 9 79 35 91 118 83 232-4 74-26 182-38 239h-294c-12-57-33-165-38-239-7-114 4-197 83-232 9-3 17-7 24-9 45-19 45-19 48-119v-4c1-35 2-64 3-88 3-58 4-85-6-106-2-5-4-9-6-12-4-10-4-10-25-15-6-1-13-2-23-4l-18-4c-44-9-55-11-59-31 0-3 1-6 3-8 2-2 4-4 8-4h307c3 0 5 2 7 4 2 2 3 5 3 8-3 20-15 22-59 31z" />
<glyph glyph-name="grocery" horiz-adv-x="1000" unicode="&#xef40;" d="M796 601h-170v64c0 68-56 123-126 123-69 0-126-55-126-123v-64h-170l-31-689h654l-31 689z m-394 64c0 53 44 95 98 95s98-42 98-95v-64h-196v64z" />
<glyph glyph-name="heart-alt" horiz-adv-x="1000" unicode="&#xef44;" d="M495-109c-13 17-24 35-37 51-41 51-90 94-138 137-57 52-114 102-169 156-56 56-103 120-129 197-22 62-30 125-13 190 25 99 110 175 211 190 116 18 224-40 276-145 0-2 1-3 2-4 1-3 2-3 4-2 0 1 1 2 1 3 39 79 100 129 187 146 81 17 154-2 217-55 71-61 100-139 92-231-8-87-44-161-97-229-50-64-109-117-169-170-54-49-108-98-160-149-27-25-50-56-68-88-1-1-1-2-2-3-1-2-5 1-8 6z" />
<glyph glyph-name="heart" horiz-adv-x="1000" unicode="&#xef45;" d="M500 595c16 28 36 52 60 72 90 73 230 66 311-17 64-66 80-145 55-232-19-68-56-126-100-180-73-87-160-155-255-215-21-13-43-26-64-38-3-2-9-3-12-1-109 62-211 134-296 227-52 55-94 117-119 189-21 60-25 120 1 179 34 76 94 123 177 135 104 14 185-25 240-116 0-1 1-1 2-3z" />
<glyph glyph-name="history" horiz-adv-x="1000" unicode="&#xef46;" d="M931 416c-16 99-65 181-144 241-117 89-246 109-382 56-132-51-213-150-243-288-3-16-5-31-7-48-13 14-25 27-37 40-13 14-33 15-46 4-13-13-13-31 1-46 27-30 55-59 83-89 17-19 33-19 52-2 29 27 58 54 86 81 4 3 7 7 10 11 8 12 5 29-6 38-12 10-28 11-40 0-13-11-25-22-38-34l-2 1c2 13 3 25 6 37 37 173 201 285 375 257 160-27 276-162 277-324 0-96-35-178-106-243-88-81-192-105-307-78-57 14-106 43-148 83-15 15-33 15-46 2-13-13-12-31 4-46 91-86 199-123 323-108 100 12 182 58 247 133 79 93 108 202 88 322z m-369 139c0 5-1 10-1 15-3 17-20 27-37 23-15-3-24-15-24-33 0-76 0-152 0-229 0-25 11-37 36-37 47 0 94 0 141 0 2 0 5 0 7 0 19 2 30 15 29 32-1 17-14 29-32 29-36 0-71 0-107 0h-13v14c1 62 1 124 1 186z" />
<glyph glyph-name="home" horiz-adv-x="1000" unicode="&#xef47;" d="M926 427l-96 68c1 3 1 6 1 9 0 24 0 47 0 70s0 47 0 71c0 13-4 17-17 17-31 0-62 0-92 0-13 0-17-4-17-17l0-62-190 134c-14 9-16 10-29 0l-244-171c-56-40-112-80-169-120-11-8-13-13-7-23 19-27 37-53 56-80 2-3 7-5 11-9 5 3 10 6 14 8l20 15c-1-3-1-6-1-9 0-110 0-221 0-331 0-17 4-21 21-21h208c18 0 21 3 21 21v294h168v-295c0-16 4-20 20-20h209c15 0 19 4 19 19 0 112 0 224 0 336 0 2 0 5-1 7l23-16c13-9 18-8 27 5l50 72c10 14 9 18-5 28z" />
<glyph glyph-name="image" horiz-adv-x="1000" unicode="&#xef4b;" d="M681 293c-13 15-31 15-43-2-6-8-12-17-18-26-11-16-30-17-43-2-27 31-54 61-80 92-13 15-33 14-46-1l-40-47c-12-15-31-19-42-10-11 10-25 10-33 0-7-9-19-6-27 8-5 8-10 17-15 25-4 7-8 11-10 9-1-1-1-2-2-4-26-49-86-156-93-155l-8-82h619c19 0 25 13 13 28l-132 167z m-81 125c52 0 92 39 92 89 1 53-39 95-90 95-52 1-95-42-94-94 1-50 41-90 92-90z m298 297h-796c-22 0-39-18-39-40v-650c0-21 17-39 39-39h797c21 0 39 18 39 39v650c0 22-18 40-40 40z m-11-644c0-22-18-39-39-39h-696c-21 0-39 17-39 39v559c0 21 18 39 39 39h696c21 0 39-18 39-39v-559z" />
<glyph glyph-name="inbox" horiz-adv-x="1000" unicode="&#xef4c;" d="M922 279c0 6-2 12-5 16-43 58-87 116-130 174-3 3-9 6-14 6-29 1-58 1-88 1l-48-47h110c7 0 12-1 16-7 32-43 64-86 97-128 1-2 1-3 3-6h-268c-3-31-14-57-39-75-18-14-39-20-62-19-37 3-83 29-88 93h-270c3 5 5 7 7 10 31 41 61 82 92 123 5 6 9 9 18 9 36 0 73 0 109 0l-47 47c-30 0-59 0-88-1-5 0-11-3-14-6-43-58-87-116-130-174-3-4-5-11-5-17-1-113-1-226-1-339 0-21 6-27 28-27h792c19 0 26 6 26 25 0 114 0 228-1 342z m-434 69c7-7 18-7 24 0l206 199c7 7 7 18 0 24l-41 40c-7 6-18 6-25 0l-97-95v255c0 9-7 17-17 17h-69c-9 0-17-8-17-17v-262l-105 102c-6 6-17 6-24 0l-41-40c-7-7-7-17 0-24l206-199z" />
<glyph glyph-name="info" horiz-adv-x="1000" unicode="&#xef50;" d="M661 6c-1 12-2 22-5 33h-76v484h-236c-4-20-7-41-7-62 0-10 1-21 2-32 1-11 3-22 5-32h77v-358h-77c-2-11-4-21-5-33-1-11-2-22-2-32 0-21 3-41 7-62h312c5 21 7 41 7 62 0 10 0 21-2 32z m-222 614c15-1 29-1 41-1 13 0 27 0 42 1 15 0 29 2 42 4 2 13 3 27 4 40 1 13 1 26 1 38 0 14 0 27-1 39s-2 26-4 40c-13 2-27 4-43 5-15 1-29 1-42 1-12 0-26 0-41-1-15-1-28-3-41-5-5-28-7-54-7-79 0-25 2-51 7-78 13-2 27-4 42-4z" />
<glyph glyph-name="info-square" horiz-adv-x="1000" unicode="&#xef4f;" d="M873 787h-745c-36 0-65-28-65-64v-746c0-36 29-64 65-64h745c36 0 65 28 65 64v746c0 36-29 64-65 64z m-438-166c8 1 17 2 26 3 10 1 18 1 26 1 8 0 17 0 27-1 9-1 18-2 26-3 2-9 3-17 3-25 1-8 1-16 1-24 0-8 0-16-1-25 0-8-1-16-3-25-8-1-17-2-26-3-9 0-18 0-26 0-8 0-17 0-26 0-10 1-18 2-27 3-3 17-4 33-4 50 0 15 1 32 4 49z m163-546h-196c-3 12-4 25-4 39 0 6 0 13 1 20 0 7 2 14 3 20h48v225h-48c-1 7-3 13-3 20-1 8-1 14-1 21 0 13 1 26 4 38h148v-304h48c2-6 3-13 4-20 0-7 1-14 1-20 0-14-2-27-5-39z" />
<glyph glyph-name="jewlery" horiz-adv-x="1000" unicode="&#xef56;" d="M596 599c0 0 1 0 1 0l66 118c2 4 0 9-4 11l-151 57c-3 1-5 2-7 2l0 1c-1 0-2 0-2 0 0 0-1-1-1-1-1 0-3-1-6-2l-151-57c-5-2-7-7-4-11l66-118 0-1c-146-42-253-176-253-335 0-194 157-350 350-350s350 156 350 350c-1 159-108 294-254 336z m-96-605c-148 0-268 120-268 268 0 148 120 269 268 269 148 0 268-121 268-269 0-148-120-268-268-268z" />
<glyph glyph-name="key" horiz-adv-x="1000" unicode="&#xef59;" d="M67 108c17-1 31-2 46-3 14 0 29-1 43-2 1 31 1 60 2 90 32-2 61-3 91-5 1 32 1 61 2 91 32-2 61-3 92-4 0 16 0 32 1 47 0 20 1 40 2 60 1 6 4 13 8 17 19 20 40 39 61 58 6 5 7 10 6 19-18 103 14 189 96 255 84 67 211 70 301 9 126-84 158-250 69-372-63-88-168-124-274-98-9 3-14 2-21-5-121-114-242-227-363-341-7-6-13-8-22-8-37 2-74 3-111 4-27 2-34 9-33 37 1 49 3 99 4 151z m643 445c26-28 70-30 98-5 28 27 29 70 2 98-27 28-71 30-98 4-27-25-28-70-2-97z" />
<glyph glyph-name="key-hole" horiz-adv-x="1000" unicode="&#xef58;" d="M63 621v-542c0-92 74-167 166-167h542c92 0 167 75 167 167v542c0 92-75 167-167 167h-542c-92 0-166-75-166-167z m315-511l73 262c-45 18-77 62-77 114 0 67 55 122 122 122s123-55 123-122c0-46-26-86-63-107l70-269h-248z" />
<glyph glyph-name="label" horiz-adv-x="1000" unicode="&#xef5a;" d="M918 343c-182 135-364 271-546 406-15 11-29 12-46 5-67-30-135-61-204-90-19-9-29-22-31-43-9-74-18-148-28-221-2-18 3-32 18-43 91-67 182-135 274-202 91-68 182-136 274-204 8-6 19-9 28-9 15-1 24 10 32 21 79 106 157 212 236 318 1 2 3 3 4 5 14 23 11 41-11 57z m-638 169c-20-27-57-31-83-11-27 20-32 58-12 84 20 27 58 31 85 11 26-20 31-58 10-84z" />
<glyph glyph-name="layers" horiz-adv-x="1000" unicode="&#xef5c;" d="M500 380l438 157-436 159h-3l-437-159 436-157h2z m0-113l-191 69-138-49 329-119 329 119-138 49-191-69z m0-163l-191 69-138-50 329-119 329 119-138 50-191-69z" />
<glyph glyph-name="lens" horiz-adv-x="1000" unicode="&#xef62;" d="M129 298c3-36 20-122 101-211 7-7 13-5 15 4l70 329c2 9-3 13-11 8l-162-104c-7-5-14-17-13-26z m144-248c27-23 100-72 221-77 9 0 12 6 7 14l-184 281c-5 8-11 7-13-2l-40-188c-2-9 2-22 9-28z m274-70c36 4 122 20 211 102 7 6 5 13-4 15l-329 70c-9 2-13-3-8-11l104-162c5-8 17-14 26-14z m32 176l188-40c9-2 22 1 28 9 23 27 72 100 77 220 0 10-6 13-14 8l-281-184c-8-5-7-11 2-13z m292 247c-3 35-20 121-101 210-6 7-13 5-15-4l-70-329c-2-9 3-12 11-7l162 103c8 6 14 17 13 27z m-144 248c-27 22-100 71-221 76-9 1-12-6-7-14l184-281c5-8 11-7 13 3l40 188c2 9-2 22-9 28z m-274 69c-36-3-122-20-211-102-7-6-5-13 5-15l328-70c9-2 13 3 8 11l-104 162c-5 8-17 15-26 14z m-248-144c-23-28-72-100-77-221 0-9 6-13 14-8l281 184c8 6 7 11-2 13l-188 41c-9 2-22-2-28-9z m295 209c-241 0-437-194-437-435s196-435 437-435c242 0 438 195 438 435s-196 435-438 435z m0-835c-222 0-402 179-402 400 0 222 180 401 402 401 223 0 403-179 403-401 0-221-180-400-403-400z" />
<glyph glyph-name="library" horiz-adv-x="1000" unicode="&#xef65;" d="M198 514h-113c-12 0-22-10-22-22v-526c0-13 10-23 22-23h113c13 0 23 10 23 23v526c0 12-10 22-23 22z m-3-528h-107v26h107v-26z m17 567h-141c-5 0-8 4-8 8v29c0 5 3 9 8 9h141c4 0 8-4 8-9v-29c0-4-4-8-8-8z m-11 84h-120c-10 0-18 9-18 19v74c0 10 8 19 18 19h120c11 0 19-9 19-19v-74c0-10-8-19-19-19z m447-123h-114c-12 0-22-10-22-22v-526c0-13 10-23 22-23h114c12 0 22 10 22 23v526c0 12-10 22-22 22z m-57-530c-19 0-35 16-35 36s16 35 35 35c20 0 35-16 35-35s-15-36-35-36z m70 569h-141c-4 0-8 4-8 8v29c0 5 4 9 8 9h142c4 0 8-4 8-9v-29c0-4-4-8-9-8z m-10 84h-120c-11 0-19 9-19 19v74c0 10 8 19 19 19h120c10 0 19-9 19-19v-74c0-10-9-19-19-19z m203-113l-113-13c-12-2-21-13-20-25l59-523c2-12 13-21 25-20l113 13c12 2 21 13 19 25l-59 523c-1 12-12 21-24 20z m9 40l-141-16c-4-1-8 2-9 7l-3 29c-1 4 3 9 7 9l140 16c5 0 9-3 10-7l3-29c0-5-3-9-7-9z m-20 82l-120-13c-10-2-19 6-20 16l-9 74c-1 10 7 19 17 20l119 14c11 1 20-6 21-17l8-73c1-10-6-20-16-21z m-408-263h-138c-15 0-27-10-27-22v-396c0-12 12-22 27-22h138c15 0 28 10 28 22v396c0 12-13 22-28 22z m-157 42h176c4 0 8 3 8 8v29c0 5-4 8-8 8h-176c-4 0-8-3-8-8v-29c0-5 4-8 8-8z m11 84h154c10 0 19 8 19 19v73c0 11-9 19-19 19h-154c-10 0-19-8-19-19v-73c0-11 9-19 19-19z" />
<glyph glyph-name="life-buoy" horiz-adv-x="1000" unicode="&#xef68;" d="M500 788c-242 0-437-196-437-438 0-242 195-438 437-438 242 0 438 196 438 438 0 242-196 438-438 438z m-1-79c0 19 15 34 34 32 81-6 157-38 219-90 14-12 14-33 1-46l-62-63c-13-13-35-13-50-2-40 30-89 46-140 47h-1s-1 15-1 33v45l0 44z m-390-326c7 81 38 157 90 219 12 14 33 14 47 1l62-62c14-13 13-35 2-50-24-31-39-68-44-107-3-19-18-34-36-34l-89-1c-18 0-34 15-32 34z m393-426h-2c-93 0-182 33-252 92-15 12-15 33-1 47l62 62c13 14 35 13 49 2 41-30 89-46 140-47h1s1-15 1-34v-44l5-44c1-18 2-34 1-34s-3 0-4 0z m-2 201c-106 0-192 86-192 192 0 106 86 192 192 192 106 0 192-86 192-192 0-106-86-192-192-192z m254-62l-63 63c-13 13-13 34-1 49 24 32 39 69 44 109 3 18 18 33 36 33l89 1c19 0 34-15 32-33-6-82-38-158-90-221-12-14-34-14-47-1z" />
<glyph glyph-name="life-ring" horiz-adv-x="1000" unicode="&#xef6a;" d="M351 709c-3-8-11-17-18-21-4-2-9-4-13-6-31-17-60-39-87-65-26-26-48-56-65-87-2-4-4-8-6-13-4-7-13-14-21-18-46-22-79-80-79-149s33-127 79-149c8-3 18-11 21-18 2-4 4-9 6-13 17-31 39-60 65-87s56-47 87-64c4-3 9-5 13-7 7-3 15-13 18-21 22-46 80-79 149-79 69 0 127 33 149 79 3 8 11 18 18 21 5 2 9 4 13 7 31 16 61 38 87 64 26 27 48 56 65 87 2 4 4 9 6 13 4 7 13 15 21 18 46 22 79 80 79 149s-33 127-79 149c-8 4-17 11-21 18-2 5-4 9-6 13-17 31-39 61-65 87-26 26-56 48-87 65-4 2-8 4-13 6-7 4-15 13-18 21-22 46-80 79-149 79-69 0-127-33-149-79z m177-226c7-1 7-7-2-11-7-3-16-5-26-5-10 0-19 2-26 5-8 4-9 10-2 11 4 1 8 2 12 2 11 2 21 2 32 0 4 0 8-1 12-2z m20-21c7 5 19 7 26 3 8-6 15-12 22-19 7-6 13-14 18-22 5-7 3-19-2-26-9-13-15-29-15-48s6-35 15-48c5-7 7-18 2-26-5-8-11-15-18-22-7-7-14-13-22-18-7-5-19-3-26 2-13 9-30 14-48 14-19 0-35-5-48-14-7-5-19-7-26-2-8 5-15 11-22 18-7 7-13 14-18 22-5 7-3 19 2 26 9 13 14 30 14 48s-5 35-14 48c-5 7-7 19-3 26 6 8 12 15 19 22 6 7 14 13 22 18 7 5 19 3 26-2 13-9 29-15 48-15 19 1 35 6 48 15z m85-84c1-4 2-8 2-12 2-11 2-21 0-32 0-4-1-8-2-12-1-7-8-6-11 2-3 8-5 17-5 26 0 10 2 19 5 27 3 8 10 8 11 1z m-161-161c-7 1-6 8 2 11 7 3 16 5 26 5 10 0 19-2 26-5 8-3 9-10 2-11-4-1-8-2-12-2-11-1-22-1-32 0-4 0-8 1-12 2z m-105 105c-1 4-2 8-2 12-1 10-1 21 0 32 0 4 1 8 2 12 1 7 8 6 11-2 3-8 5-16 5-26 0-10-2-19-5-26-3-8-10-9-11-2z m-42 34c0-4 0-8 0-12 0-9-4-21-10-27l-106-107c-6-6-15-5-18 3-38 87-38 187 0 274 3 8 12 9 18 3l106-106c6-7 10-19 10-28z m466-146l-106 107c-6 6-10 18-10 27 0 4 0 8 0 12 0 9 4 21 10 27l106 107c7 6 15 5 18-3 39-87 39-187 0-274-3-8-11-9-18-3z m-658 261c6 5 10 2 8-7-24-74-24-154 0-228 2-9-2-12-9-7-30 24-50 69-50 121s20 97 51 121z m246-489c-5 7-2 11 7 9 74-24 154-24 228 0 9 2 12-2 7-9-24-30-69-50-121-50s-97 20-121 50z m258 59c-87-39-187-39-274 0-8 3-9 11-3 18l107 106c6 6 18 10 27 10 4 0 8 0 12 0 9 0 21-4 27-10l107-106c6-7 5-15-3-18z m231 188c-7-5-11-2-9 7 24 74 24 154 0 228-2 9 2 12 9 7 30-24 50-69 50-121s-20-97-50-121z m-362 296c-4 0-8 0-12 0-9 0-21 4-27 10l-107 106c-6 7-5 15 3 18 87 39 187 39 274 0 8-3 9-11 3-18l-107-106c-6-6-18-10-27-10z m108 184c-74 24-154 24-228 0-9-2-12 2-7 9 24 30 69 50 121 50 52 0 97-20 121-50 5-7 2-11-7-9z" />
<glyph glyph-name="life-bouy" horiz-adv-x="1000" unicode="&#xef67;" d="M156 621c-8 8-16 14-23 22-15 15-15 31-1 46 13 12 25 25 37 37 15 13 30 13 45 0 6-6 12-12 18-18 5-6 8-6 14-2 54 39 113 64 178 75 118 19 226-4 324-72 10-7 16-7 23 2 5 6 10 11 16 16 12 11 27 12 39 1 15-14 29-28 43-42 12-13 11-29-2-42-7-8-15-15-23-22 122-178 124-355 6-537 6-4 13-9 19-16 10-11 11-26 1-37-15-16-30-31-45-45-12-11-28-9-39 2-6 5-10 12-15 17-165-131-395-119-543 0-6-7-12-14-19-21-15-14-31-14-45 0-13 12-26 25-38 38-13 13-13 30 0 43 7 8 15 14 23 21-58 82-88 170-86 268 1 99 32 187 93 266z m462-463c-5 13-5 25 5 36 13 13 26 26 39 39 8 8 17 11 27 9 6-2 9 0 12 6 34 72 32 143-5 214-4 7-8 11-17 12-6 0-12 5-17 9-13 12-25 24-37 37-4 5-6 11-10 17-3 4-5 10-9 12-70 36-140 36-211 2-6-4-10-8-12-16-1-6-5-12-10-17-11-12-22-24-34-34-7-5-16-7-24-11-3-2-7-3-9-6-41-74-43-148-5-223 1-3 6-5 9-7 7-3 15-5 21-9 13-12 26-25 38-39 5-6 9-14 9-22 1-7 4-10 9-13 30-17 62-27 97-29 48-4 92 7 134 33z m110-113l-81 80c-98-58-197-58-295 1l-81-81c126-101 324-105 457 0z m-5 453c2-4 4-7 6-11 24-39 36-82 38-128 1-50-10-97-35-140-3-6-3-10 2-15 24-23 47-46 70-69 2-2 4-4 6-5 102 140 89 331-6 449-27-27-54-54-81-81z m-528 81c-105-135-98-326-6-450 25 25 50 51 75 75 6 6 6 9 2 16-33 60-42 123-27 189 7 32 20 62 37 89-27 27-54 54-81 81z m525 83c-146 104-332 83-441-2 25-24 49-48 73-73 7-7 11-7 19-3 64 35 132 44 202 23 23-7 44-17 66-26 26 26 53 53 81 81z" />
<glyph glyph-name="light-bulb" horiz-adv-x="1000" unicode="&#xef6b;" d="M577 74h-155c-12 0-22-10-22-22 0-12 10-22 22-22h155c12 0 22 10 22 22s-9 22-22 22z m-117-127c3-19 19-35 40-35s37 15 40 35c27 2 48 24 48 51h-176c0-28 21-49 48-51z m40 715c16 0 29 13 29 29v67c0 16-13 30-29 30-16 0-29-13-29-30v-67c0-16 13-29 29-29z m-191-42c6-8 15-12 24-12 6 0 12 1 17 5 13 10 16 28 7 41l-40 54c-10 13-28 16-41 7s-16-28-6-41l39-54z m-152-132l64-21c3-1 6-1 9-1 12 0 23 7 27 20 5 15-3 31-18 36l-64 21c-16 5-32-3-37-18-5-16 3-32 19-37z m686-162l-64 21c-15 5-32-4-37-19-5-15 4-32 19-37l64-20c3-1 6-2 9-2 12 0 24 8 28 20 5 16-3 32-19 37z m-622 21l-64-21c-16-5-24-21-19-37 4-12 15-20 28-20 3 0 6 1 9 2l64 20c15 5 23 22 18 37-5 15-21 24-36 19z m549 119c3 0 6 0 9 1l64 21c15 5 24 21 19 36-5 16-22 24-37 19l-64-21c-15-5-24-21-19-36 5-13 16-20 28-20z m-46 249c-13 9-31 6-41-7l-40-54c-9-13-6-31 7-41 5-4 11-5 17-5 9 0 18 4 23 12l40 54c10 13 7 31-6 41z m-129-608v68c20 33 46 72 70 101 28 36 45 81 45 130 0 116-94 209-210 209-116 0-210-93-210-209 0-49 17-94 45-130 25-31 48-65 68-99v-70h192z" />
<glyph glyph-name="link" horiz-adv-x="1000" unicode="&#xef71;" d="M894 654c-28 30-57 60-87 88-64 60-160 61-224 1-46-42-89-88-133-132 0 0-1-1-1-1 0-1 0-2 1-2 0 0 1 0 1 0 2 0 3 0 5 0 39 0 76-8 110-27 6-3 8-1 12 2 25 26 50 51 76 76 24 24 57 24 81 0 25-24 50-49 74-74 24-24 24-57 1-80-77-78-154-155-232-232-7-7-16-12-25-14-22-7-40 1-56 17-21 20-42 41-62 61-6 7-17 7-23 0l-54-54c-6-6-6-17 0-23 22-23 44-46 67-68 63-61 165-61 228 0 25 25 50 50 75 75 56 56 113 111 167 169 57 59 56 158-1 218z m-346-562c-1 0-1 0-2 0-40 0-78 8-113 27-5 4-8 1-11-2-25-26-50-51-75-76-25-24-58-24-83 1-23 23-46 46-70 69-29 29-29 60 0 89l223 222c2 3 4 5 7 7 17 16 42 20 62 8 7-3 14-9 19-15 20-20 40-40 60-59 6-7 17-7 23 0 18 18 37 36 55 55 7 6 7 16 0 23-25 25-51 52-78 76-61 52-155 49-213-5-42-39-81-80-121-120-42-42-85-83-126-127-57-61-56-158 1-220 28-30 57-59 87-87 63-60 160-61 223-2 46 43 90 89 134 133 0 0 1 1 1 1 0 1-1 2-3 2z" />
<glyph glyph-name="link-alt" horiz-adv-x="1000" unicode="&#xef70;" d="M531 255l-62-62c9-9 14-20 14-32 0-12-4-23-14-32l-156-158c-8-9-19-14-31-14-13 0-23 5-33 14l-125 125c-9 9-14 20-14 32 0 12 4 22 13 31l157 158c8 9 18 14 31 14s23-5 32-13l63 62-32 32c-18 18-39 27-63 26-25 0-46-9-64-26l-219-222c-17-17-26-38-26-63 1-25 10-46 27-64l190-188c17-17 38-25 63-25 24 0 46 9 64 26l219 222c17 18 26 39 25 64 0 24-9 45-27 62l-32 31z m440 382l-190 188c-17 17-38 25-63 25-24 0-46-9-64-26l-219-222c-17-18-25-39-25-63 0-25 9-46 27-63l32-31 62 62c-9 10-14 20-14 32 0 12 5 23 14 32l156 158c8 9 19 14 31 14 13 0 24-5 33-14l125-125c9-9 14-19 14-31 0-13-4-23-13-32l-157-158c-8-9-18-14-31-13-12 0-23 4-32 12l-63-62 32-32c18-18 39-27 63-26 25 0 46 9 64 26l220 222c17 18 25 39 25 63-1 25-9 46-27 64z m-640-414c0-12 4-23 12-32 9-8 19-12 32-12 12 0 23 4 32 13l251 254c8 8 11 19 11 31 0 13-4 23-12 32-9 8-19 12-32 12-12 0-23-4-32-13l-250-253c-8-9-12-19-12-32z" />
<glyph glyph-name="listine-dots" horiz-adv-x="1000" unicode="&#xef74;" d="M984 737c-5 3-11 5-17 6h-766c20-18 33-43 33-72s-13-53-33-71c254 0 507 0 761 0h3c8 0 15 3 21 8 8 5 11 13 14 21v84c-3 10-8 18-16 24z m-826-66c0-43-35-79-79-79s-79 36-79 79c0 44 35 80 79 80s79-36 79-80z m809-142h-766c20-18 33-44 33-72s-13-54-33-72c254 0 507 0 761 0h3c8 0 15 3 21 8 8 6 11 13 14 22v84c-3 9-8 18-16 23-5 4-11 5-17 7z m-809-72c0-44-35-79-79-79s-79 35-79 79c0 44 35 79 79 79s79-35 79-79z m809-143h-766c20-17 33-43 33-71s-13-54-33-72c254 0 507 0 761 0h3c8 0 15 3 21 8 8 5 11 13 14 21v84c-3 10-8 18-16 24-5 4-11 5-17 6z m-809-71c0-44-35-80-79-80s-79 36-79 80c0 43 35 79 79 79s79-36 79-79z m809-143h-766c20-18 33-43 33-72s-13-54-33-71c254 0 507 0 761 0h3c8 0 15 3 21 8 8 5 11 13 14 21v84c-3 10-8 18-16 24-5 3-11 5-17 6z m-809-72c0-43-35-79-79-79s-79 36-79 79c0 44 35 80 79 80s79-36 79-80z" />
<glyph glyph-name="listing-box" horiz-adv-x="1000" unicode="&#xef75;" d="M35 314c-19 0-35-16-35-35 0-24 0-48 0-73 0-8 3-15 9-22 8-10 19-13 32-13l179 0v143h-180l-5 0z m925 0h-686v-143c229 0 457 0 685 0 2 0 4 0 6 0 9 0 16 3 22 8 7 6 10 13 13 21v85c0 0-1 0-1 1-6 20-18 28-39 28z m24 423c-5 3-11 5-17 6h-693v-143c230 0 459 0 688 0h3c8 0 15 3 21 8 8 5 11 13 14 21v84c-3 10-8 18-16 24z m-953 5c-19-3-31-17-31-37 0-23 0-46 0-68 0-3 0-6 1-8 2-15 17-29 36-29l183 0v143h-187c-1 0-1-1-2-1z m2-214c-18-1-33-16-33-36 0-23 0-47 0-71 0-2 0-5 1-7 4-17 18-29 36-29h183v143h-180c-2 0-4 0-7 0z m927 0h-686v-143h646c15 0 29 0 44 0 9 0 17 3 23 9 7 6 11 13 13 21v84c0 0-1 0-1 1-6 20-18 28-39 28z m-924-428c-20-1-36-16-36-37 0-23 0-47 0-70 0-10 4-18 10-25 8-9 19-11 31-11 60 0 119 0 179 0v143h-179c-2 0-3 0-5 0z m920 0h-682v-143c229 0 457 0 685 0 3 0 5 0 7 0 11 0 19 5 25 12 5 5 7 11 9 17v84c-9 24-18 30-44 30z" />
<glyph glyph-name="listing-number" horiz-adv-x="1000" unicode="&#xef76;" d="M968 313h-744c-1 0-2 0-4 0-15-1-28-16-28-35 0-24 0-48 0-72 0-9 2-16 7-22 7-10 15-13 26-13 247 0 495 0 742 0 2 0 3 0 5 0 7 0 12 3 17 8 6 5 9 13 11 21v84c0 0 0 0-1 0-5 20-14 29-31 29z m19 419c-4 4-9 5-14 7h-754c-1-1-1-1-2-1-15-4-25-18-25-37v-68c0-3 0-5 0-8 3-14 15-29 30-29 249 1 498 0 747 0h3c6 0 12 3 17 8 6 6 9 13 11 21v84c-2 10-6 18-13 23z m-19-202h-744c-2 0-3 0-5-1-15-1-27-16-27-35 0-24 0-47 0-71 0-2 0-5 1-7 3-17 14-28 29-28h713c12 0 24 0 36 0 7 0 13 3 19 8 5 6 8 13 10 21v84c0 0 0 0-1 0-5 20-14 29-31 29z m-4-426h-739c-1 0-3 0-4 0-16 0-29-16-29-36 0-23 0-47 0-70 0-10 3-18 8-25 7-9 15-11 25-11 247 0 495 0 742 0 2 0 4 0 6 0 8 1 15 5 20 13 4 4 5 10 7 16v84c-7 23-15 29-36 29z m-941 571c3 2 6 3 9 5 2 1 4 3 6 5v-41h-30v-35h96v35h-27v82h-39c-1-1-3-3-6-6-3-2-6-4-9-6-4-2-7-4-11-5-3-2-6-2-8-2v-36c3 0 6 0 9 1 4 1 7 2 10 3z m54-234c4 2 7 4 11 7 3 2 5 4 8 6s5 4 7 7c2 3 3 6 4 9 1 3 2 7 2 11 0 12-4 21-13 28-8 6-20 9-35 9-6 0-12 0-18-1s-11-2-16-4c-5-2-9-4-13-6s-8-5-10-8l24-29c5 5 9 9 13 11 4 3 8 4 13 4 4 0 7-1 9-3 2-1 3-4 3-7 0-2 0-3-1-4 0-1-2-2-4-4s-5-3-10-5-10-6-17-10c-6-3-11-6-15-10s-7-7-9-11-5-9-6-14c-1-5-1-11-1-18h108v35h-45c3 2 7 5 11 7z m-29-238c-6 0-11 1-15 2-5 2-9 4-13 7l-20-28c7-6 14-10 22-13 8-3 17-4 28-4 9 0 17 1 25 3 7 2 13 5 18 8 5 4 9 8 12 14s4 11 4 17c0 5-1 9-2 13s-4 8-6 12-6 6-9 8-8 3-12 4c4 1 7 2 10 4 4 2 7 5 9 8s4 6 5 10 2 8 2 12c0 5-1 10-3 15-3 4-6 8-11 11-4 3-9 6-16 7-6 2-13 3-20 3-6 0-12-1-17-1s-10-3-15-4-9-4-13-6c-4-2-7-5-9-8l25-29c3 5 6 9 11 11s8 4 13 4c4 0 8-1 10-3 2-2 4-4 4-8 0-4-2-8-6-10s-10-4-16-4h-8v-27h7c9 0 16-1 20-3 4-3 6-6 6-12 0-4-1-8-5-10-3-2-8-3-15-3z m44-98h-27l-65-83v-35h53v-26h39v26h18v35h-18v83z m-35-83h-18l18 25v-25z" />
</font>
</defs>
</svg>
